<svg xmlns="http://www.w3.org/2000/svg" width="24" height="20.016" viewBox="0 0 24 20.016">
  <path id="União_1" data-name="União 1" d="M-5578.8-2924.983a1.2,1.2,0,0,1-1.2-1.2v-3.2a1.2,1.2,0,0,1,1.2-1.2h6.4v-1.6h-6.4a1.2,1.2,0,0,1-1.2-1.2v-3.2a1.2,1.2,0,0,1,1.2-1.2h6.4v-1.6h-6.4a1.2,1.2,0,0,1-1.2-1.2v-3.2a1.2,1.2,0,0,1,1.2-1.2h13.611a1.2,1.2,0,0,1,1.2,1.2v3.2a1.145,1.145,0,0,1-.049.321,6.032,6.032,0,0,0-1.216.879h-6.341v1.6h5.1a5.972,5.972,0,0,0-.583,1.64,1.205,1.205,0,0,0-.893,1.163,1.2,1.2,0,0,0,.893,1.162,5.961,5.961,0,0,0,.583,1.64h-5.1v1.6h6.341a6.055,6.055,0,0,0,1.217.88,1.165,1.165,0,0,1,.048.321v3.2a1.2,1.2,0,0,1-1.2,1.2Zm12.009-1.6a1.2,1.2,0,0,0,0-2.4A1.2,1.2,0,0,0-5566.79-2926.585Zm-2.8,0a1.2,1.2,0,0,0,0-2.4A1.2,1.2,0,0,0-5569.591-2926.585Zm-8.808-1.6v.8a.8.8,0,0,0,.8.8h5.6a.8.8,0,0,0,.8-.8v-.8a.8.8,0,0,0-.8-.8h-5.6A.8.8,0,0,0-5578.4-2928.186Zm8.808-5.6a1.2,1.2,0,0,0,0-2.4A1.2,1.2,0,0,0-5569.591-2933.791Zm-8.808-1.6v.8a.8.8,0,0,0,.8.8h5.6a.8.8,0,0,0,.8-.8v-.8a.8.8,0,0,0-.8-.8h-5.6A.8.8,0,0,0-5578.4-2935.391Zm11.609-5.605a1.2,1.2,0,0,0,0-2.4A1.2,1.2,0,0,0-5566.79-2941Zm-2.8,0a1.2,1.2,0,0,0,0-2.4A1.2,1.2,0,0,0-5569.591-2941Zm-8.808-1.6v.8a.8.8,0,0,0,.8.8h5.6a.8.8,0,0,0,.8-.8v-.8a.8.8,0,0,0-.8-.8h-5.6A.8.8,0,0,0-5578.4-2942.6Zm11.225,14.812a.4.4,0,0,1,.385-.4.4.4,0,0,1,.386.4.4.4,0,0,1-.386.4A.4.4,0,0,1-5567.174-2927.786Zm-2.8,0a.4.4,0,0,1,.387-.4.4.4,0,0,1,.385.4.4.4,0,0,1-.385.4A.4.4,0,0,1-5569.978-2927.786Zm-7.62.4v-.8h5.6v.8Zm12.558-4.124a10.029,10.029,0,0,1,1.728-.484,9.776,9.776,0,0,0,1.527,2.168A5.191,5.191,0,0,1-5565.04-2931.509Zm6.083-.446a10.455,10.455,0,0,1,1.63.443,5.183,5.183,0,0,1-3.246,1.684A8.6,8.6,0,0,0-5558.958-2931.954Zm-1.827-.218c.347.015.677.044.986.083a7.606,7.606,0,0,1-.986,1.34Zm-1.682.054c.3-.032.6-.054.881-.062v1.363A9.116,9.116,0,0,1-5562.466-2932.118Zm3.851-.595a5.966,5.966,0,0,0,.364-1.878h2.25a5.175,5.175,0,0,1-.832,2.446A8.654,8.654,0,0,0-5558.615-2932.713Zm-7.753-1.878h2.266a6.906,6.906,0,0,0,.455,1.844,15.857,15.857,0,0,0-1.89.6A5.15,5.15,0,0,1-5566.368-2934.591Zm5.584,1.608v-1.608h1.734a5.187,5.187,0,0,1-.375,1.734A12.6,12.6,0,0,0-5560.784-2932.983Zm-2.51-1.608h1.709v1.6a12.188,12.188,0,0,0-1.255.1A6.236,6.236,0,0,1-5563.294-2934.591Zm-6.684-.4a.4.4,0,0,1,.387-.4.4.4,0,0,1,.385.4.4.4,0,0,1-.385.4A.4.4,0,0,1-5569.978-2934.991Zm-7.62.4v-.8h5.6v.8Zm19.331-.8a6.946,6.946,0,0,0-.453-1.843,7.9,7.9,0,0,0,1.888-.6,5.161,5.161,0,0,1,.831,2.445Zm-2.518,0v-1.6a11.584,11.584,0,0,0,1.257-.1,6.21,6.21,0,0,1,.453,1.7Zm-2.535,0a5.211,5.211,0,0,1,.374-1.734,12.881,12.881,0,0,0,1.36.127v1.607Zm-3.049,0a5.166,5.166,0,0,1,.831-2.445,6.482,6.482,0,0,0,1.784.567,5.959,5.959,0,0,0-.364,1.877Zm5.584-3.773a9.091,9.091,0,0,1,.881,1.3c-.3.032-.6.054-.881.062Zm-1.788,1.271a7.635,7.635,0,0,1,.987-1.339v1.422C-5561.933-2937.826-5562.261-2937.854-5562.572-2937.894Zm1.988-2.264a5.19,5.19,0,0,1,3.255,1.683,10.029,10.029,0,0,1-1.728.484A9.735,9.735,0,0,0-5560.583-2940.158Zm-4.459,1.685a5.19,5.19,0,0,1,3.248-1.684,8.605,8.605,0,0,0-1.618,2.129A10.546,10.546,0,0,1-5565.042-2938.473Zm-2.132-3.725a.4.4,0,0,1,.385-.4.4.4,0,0,1,.386.4.4.4,0,0,1-.386.4A.4.4,0,0,1-5567.174-2942.2Zm-2.8,0a.4.4,0,0,1,.387-.4.4.4,0,0,1,.385.4.4.4,0,0,1-.385.4A.4.4,0,0,1-5569.978-2942.2Zm-7.62.4v-.8h5.6v.8Z" transform="translate(5580 2944.999)" fill=""/>
</svg>
