<svg xmlns="http://www.w3.org/2000/svg" width="24.071" height="22.734" viewBox="0 0 24.071 22.734">
  <g id="analise-de-concorrencia" transform="translate(0 0)">
    <path id="Caminho_3258" data-name="Caminho 3258" d="M.669,234.668H3.343a.669.669,0,0,1,.669.668v6.686a.669.669,0,0,1-.669.669H.669A.669.669,0,0,1,0,242.023v-6.686a.669.669,0,0,1,.669-.668Zm0,0" transform="translate(0 -219.958)" fill="#f55622"/>
    <path id="Caminho_3259" data-name="Caminho 3259" d="M107.336,149.332h2.675a.669.669,0,0,1,.669.669v12.036a.669.669,0,0,1-.669.669h-2.675a.669.669,0,0,1-.668-.669V150A.669.669,0,0,1,107.336,149.332Zm0,0" transform="translate(-99.982 -139.971)" fill="#f55622"/>
    <path id="Caminho_3260" data-name="Caminho 3260" d="M214,192h2.675a.669.669,0,0,1,.668.669v9.361a.669.669,0,0,1-.668.669H214a.669.669,0,0,1-.669-.669v-9.361A.669.669,0,0,1,214,192Zm0,0" transform="translate(-199.959 -179.964)" fill="#f55622"/>
    <path id="Caminho_3261" data-name="Caminho 3261" d="M320.669,128h2.674a.669.669,0,0,1,.669.669v13.373a.669.669,0,0,1-.669.669h-2.674a.669.669,0,0,1-.669-.669V128.669A.669.669,0,0,1,320.669,128Zm0,0" transform="translate(-299.941 -119.976)" fill="#f55622"/>
    <path id="Caminho_3262" data-name="Caminho 3262" d="M22.065,0a2.008,2.008,0,0,0-2.006,2.006,1.983,1.983,0,0,0,.115.641l-3.347,1.99a1.989,1.989,0,0,0-3.2.429L10.672,3.6a2.009,2.009,0,0,0,.026-.26,2.006,2.006,0,1,0-3.859.765L3.01,6.966a1.983,1.983,0,0,0-1-.279,2.027,2.027,0,1,0,1.871,1.3L7.745,5.1a1.963,1.963,0,0,0,2.323-.3l3.357,1.663a2,2,0,0,0,3.959-.441c0-.051-.011-.1-.015-.149L21.01,3.7a1.986,1.986,0,0,0,1.055.307,2.006,2.006,0,0,0,0-4.012Zm0,0" transform="translate(0 0)" fill="#f55622"/>
  </g>
</svg>
