<svg xmlns="http://www.w3.org/2000/svg" width="24.007" height="24.007" viewBox="0 0 24.007 24.007">
  <g id="Layer_22" data-name="Layer 22" transform="translate(-3.4 -3.4)">
    <path id="Caminho_3248" data-name="Caminho 3248" d="M15.4,3.4a12,12,0,1,0,12,12,12,12,0,0,0-12-12Zm.059,21.678h-.118a1.729,1.729,0,0,1-1.725-1.725v-.839h3.567v.839A1.729,1.729,0,0,1,15.462,25.078Zm.193-3.072V17.54a1.9,1.9,0,0,0,1.654-1.88.252.252,0,1,0-.5,0,1.4,1.4,0,1,1-2.8,0,.252.252,0,0,0-.5,0,1.9,1.9,0,0,0,1.654,1.88v4.466H13.62a6.652,6.652,0,0,0-1.578-4.2,4.4,4.4,0,1,1,7.647-3.891,4.47,4.47,0,0,1-.86,3.815,6.946,6.946,0,0,0-1.641,4.273Zm-.5-16.528a.252.252,0,0,1,.5,0V7.542a.252.252,0,0,1-.5,0ZM7.7,15.5H5.637a.252.252,0,1,1,0-.5H7.7a.252.252,0,1,1,0,.5Zm2.434,5.364L8.688,22.329a.252.252,0,0,1-.357-.357l.73-.73.73-.73a.256.256,0,0,1,.357,0,.248.248,0,0,1,.071.18.239.239,0,0,1-.084.168Zm0-10.891a.248.248,0,0,1-.357,0L8.319,8.508a.243.243,0,0,1-.071-.176.248.248,0,0,1,.071-.18.256.256,0,0,1,.357,0l1.461,1.461a.248.248,0,0,1,0,.357Zm12.352,12.36a.248.248,0,0,1-.357,0L20.671,20.86a.239.239,0,0,1-.071-.176.252.252,0,0,1,.42-.18l1.461,1.461a.248.248,0,0,1,.071.18.239.239,0,0,1-.063.185Zm0-13.812L21.028,9.977a.248.248,0,0,1-.357,0A.243.243,0,0,1,20.6,9.8a.248.248,0,0,1,.071-.18l1.448-1.461a.256.256,0,0,1,.42.18.243.243,0,0,1-.05.176ZM25.17,15.5H23.105a.252.252,0,0,1,0-.5H25.17a.252.252,0,0,1,0,.5Z" transform="translate(0)" fill="#fc0"/>
  </g>
</svg>
