<svg xmlns="http://www.w3.org/2000/svg" width="24.008" height="24.004" viewBox="0 0 24.008 24.004">
  <g id="branding" transform="translate(0 -0.036)">
    <path id="Caminho_3253" data-name="Caminho 3253" d="M3.133,5.612a.7.7,0,0,0,.961-1.027L2.64,3.225a.7.7,0,0,0-.961,0L.226,4.585a.7.7,0,1,0,.961,1.027l.27-.252V18.574l-.27-.252a.7.7,0,0,0-.961,1.027l1.453,1.36a.7.7,0,0,0,.961,0l1.453-1.36a.7.7,0,0,0-.961-1.027l-.27.252V5.36Z" transform="translate(0 -2.859)" fill=""/>
    <path id="Caminho_3254" data-name="Caminho 3254" d="M130.159,421.643l-1.36-1.453a.7.7,0,0,0-1.027.961l.252.27H113.9l.252-.27a.7.7,0,0,0-1.027-.961l-1.36,1.453a.7.7,0,0,0,0,.961l1.36,1.453a.7.7,0,1,0,1.027-.961l-.252-.27h14.129l-.252.27a.7.7,0,1,0,1.027.961l1.36-1.453A.7.7,0,0,0,130.159,421.643Z" transform="translate(-106.341 -400.24)" fill=""/>
    <path id="Caminho_3255" data-name="Caminho 3255" d="M116.775,18.039h17.159a.7.7,0,0,0,.7-.7V.739a.7.7,0,0,0-.7-.7H116.775a.7.7,0,0,0-.7.7v16.6A.7.7,0,0,0,116.775,18.039ZM119.19,7.563a.7.7,0,0,1,.5-.465l3.277-.822,1.795-2.863a.7.7,0,0,1,1.192,0l1.795,2.863,3.277.822a.7.7,0,0,1,.368,1.133l-2.168,2.591.231,3.371a.7.7,0,0,1-.964.7l-3.135-1.261-3.135,1.261a.7.7,0,0,1-.964-.7l.231-3.371-2.168-2.591A.7.7,0,0,1,119.19,7.563Z" transform="translate(-110.63)" fill=""/>
    <path id="Caminho_3256" data-name="Caminho 3256" d="M225.483,113.8l-.173,2.534c.1-.024,2.6-1.1,2.619-1a.7.7,0,0,1,.262.051l2.356.948-.173-2.534a.7.7,0,0,1,.162-.5l1.63-1.948-2.464-.618a.7.7,0,0,1-.425-.309l-1.349-2.152-1.349,2.152a.7.7,0,0,1-.425.309l-2.464.618,1.63,1.948A.7.7,0,0,1,225.483,113.8Z" transform="translate(-213.204 -103.165)" fill=""/>
  </g>
</svg>
