<svg class="colorIconYellow iconCheckBox" id="_001-consultant" data-name="001-consultant"
                      xmlns="http://www.w3.org/2000/svg" width="23.96" height="23.96" viewBox="0 0 23.96 23.96">
                      <ellipse id="Elipse_184" data-name="Elipse 184" cx="2.5" cy="3" rx="2.5" ry="3"
                        transform="translate(4.329 12.329)" />
                      <path id="Caminho_3364" data-name="Caminho 3364"
                        d="M31,396.914a.7.7,0,0,0,.7.7h8.423a.7.7,0,0,0,.7-.7,4.914,4.914,0,0,0-9.827,0Z"
                        transform="translate(-29.549 -373.656)" />
                      <ellipse id="Elipse_185" data-name="Elipse 185" cx="2.5" cy="3" rx="2.5" ry="3"
                        transform="translate(15.329 12.329)" />
                      <path id="Caminho_3365" data-name="Caminho 3365"
                        d="M271,396.914a.7.7,0,0,0,.7.7h8.423a.7.7,0,0,0,.7-.7,4.914,4.914,0,0,0-9.827,0Z"
                        transform="translate(-258.318 -373.656)" />
                      <path id="Caminho_3366" data-name="Caminho 3366"
                        d="M21.854,0H2.106A2.108,2.108,0,0,0,0,2.106V7.721A2.108,2.108,0,0,0,2.106,9.827H4.623l1.2,1.2a.7.7,0,0,0,.993,0l1.2-1.2h7.936l1.2,1.2a.7.7,0,0,0,.993,0l1.2-1.2h2.517A2.108,2.108,0,0,0,23.96,7.721V2.106A2.108,2.108,0,0,0,21.854,0ZM9.125,7.02H3.51a.7.7,0,1,1,0-1.4H9.125a.7.7,0,0,1,0,1.4Zm0-2.808H3.51a.7.7,0,0,1,0-1.4H9.125a.7.7,0,0,1,0,1.4ZM20.45,7.02H14.835a.7.7,0,0,1,0-1.4H20.45a.7.7,0,0,1,0,1.4Zm0-2.808H14.835a.7.7,0,0,1,0-1.4H20.45a.7.7,0,0,1,0,1.4Z" />
                    </svg>