<svg xmlns="http://www.w3.org/2000/svg" width="23.632" height="24.059" viewBox="0 0 23.632 24.059">
  <g id="Layer_22" data-name="Layer 22" transform="translate(-3 -3)">
    <path id="Caminho_49" data-name="Caminho 49" d="M18.763,3H3V24.57H5.489V5.074A.415.415,0,0,1,5.9,4.659H18.763Z" fill="#caa9e8"/>
    <path id="Caminho_50" data-name="Caminho 50" d="M48.733,36.831a.415.415,0,0,1,.034-.617l1.421-1.136-6.813-1.7,1.7,6.814,1.136-1.42a.415.415,0,0,1,.3-.156h.023a.415.415,0,0,1,.293.121l1.526,1.526.263-1.316a.415.415,0,0,1,.325-.325l1.314-.263Z" transform="translate(-23.627 -17.775)" fill="#caa9e8"/>
    <path id="Caminho_51" data-name="Caminho 51" d="M43,10.414v1.9h1.9Z" transform="translate(-23.408 -4.339)" fill="#caa9e8"/>
    <path id="Caminho_52" data-name="Caminho 52" d="M25.933,27.251a.427.427,0,0,1-.088-.01.415.415,0,0,1-.314-.3l-2.074-8.3a.415.415,0,0,1,.5-.5l2.8.7V12.318h-2.9a.415.415,0,0,1-.415-.415V9H11V30.57H26.763V26.463l-.506.632A.415.415,0,0,1,25.933,27.251ZM13.489,11.489h9.126v.83H13.489ZM11.83,13.148h14.1v.83H11.83Zm0,1.659h14.1v.83H11.83Zm0,1.659h14.1v.83H11.83Zm0,1.659H22.615v.83H11.83Zm0,1.659H22.615v.83H11.83Zm0,1.659H22.615v.83H11.83Zm14.1,7.467H15.148v-.83H25.933Z" transform="translate(-4.682 -3.511)" fill="#caa9e8"/>
  </g>
</svg>
