<svg xmlns="http://www.w3.org/2000/svg" width="24.101" height="26.409" viewBox="0 0 24.101 26.409">
  <g id="_x34_65_x2C__User_x2C__idea_x2C__innovation_x2C__lightbulb_x2C__technology" transform="translate(-30.835 -9.265)">
    <g id="XMLID_449_" transform="translate(30.835 9.265)">
      <g id="XMLID_450_" transform="translate(0)">
        <path id="XMLID_252_" d="M251.024,11.311a.268.268,0,0,0,.268-.268V9.533a.268.268,0,1,0-.535,0v1.511A.268.268,0,0,0,251.024,11.311Z" transform="translate(-238.986 -9.265)" fill=""/>
        <path id="XMLID_251_" d="M340.374,38.846a.267.267,0,0,0,.366-.1l.756-1.308a.268.268,0,0,0-.463-.268l-.756,1.308A.268.268,0,0,0,340.374,38.846Z" transform="translate(-323.681 -35.553)" fill=""/>
        <path id="XMLID_250_" d="M406.02,114.158a.267.267,0,0,0,.134-.036l1.308-.756a.268.268,0,1,0-.268-.463l-1.308.756a.268.268,0,0,0,.134.5Z" transform="translate(-385.687 -107.322)" fill=""/>
        <path id="XMLID_249_" d="M431.5,216.471h-1.511a.268.268,0,1,0,0,.535H431.5a.268.268,0,0,0,0-.535Z" transform="translate(-408.376 -205.382)" fill=""/>
        <path id="XMLID_248_" d="M407.461,306.746l-1.308-.756a.268.268,0,1,0-.268.463l1.308.756a.268.268,0,1,0,.268-.463Z" transform="translate(-385.688 -290.077)" fill=""/>
        <path id="XMLID_247_" d="M72.768,305.989l-1.309.756a.268.268,0,1,0,.268.463l1.309-.756a.268.268,0,1,0-.268-.463Z" transform="translate(-69.159 -290.075)" fill=""/>
        <path id="XMLID_246_" d="M43.817,217.006h1.511a.268.268,0,1,0,0-.535H43.817a.268.268,0,1,0,0,.535Z" transform="translate(-42.869 -205.382)" fill=""/>
        <path id="XMLID_245_" d="M73.035,113.658l-1.309-.756a.268.268,0,1,0-.268.464l1.309.756a.268.268,0,1,0,.268-.464Z" transform="translate(-69.158 -107.322)" fill=""/>
        <path id="XMLID_244_" d="M147.944,38.75a.268.268,0,1,0,.463-.268l-.756-1.308a.268.268,0,0,0-.463.268Z" transform="translate(-140.928 -35.554)" fill=""/>
        <path id="XMLID_243_" d="M197.806,456.445h2.216a2.126,2.126,0,0,0,2.106-1.855H195.7A2.126,2.126,0,0,0,197.806,456.445Z" transform="translate(-186.877 -430.757)" fill=""/>
        <path id="XMLID_242_" d="M199.69,221.211a2.859,2.859,0,0,1-4.434,0,2.79,2.79,0,0,0-1.078,2.2v.14h6.591v-.14A2.79,2.79,0,0,0,199.69,221.211Z" transform="translate(-185.435 -209.868)" fill=""/>
        <path id="XMLID_457_" d="M121.883,67.67A7.57,7.57,0,0,0,117.49,81.4a.268.268,0,0,1,.112.218v2.509h8.561V81.623a.267.267,0,0,1,.112-.218,7.57,7.57,0,0,0-4.393-13.735ZM125.713,78.5a.268.268,0,0,1-.268.268H118.32a.268.268,0,0,1-.268-.268V78.09a3.324,3.324,0,0,1,1.314-2.649,2.864,2.864,0,1,1,5.034,0,3.324,3.324,0,0,1,1.314,2.649Z" transform="translate(-109.845 -64.544)" fill=""/>
        <path id="XMLID_239_" d="M214.573,148.509a2.33,2.33,0,1,0-2.329-2.331A2.332,2.332,0,0,0,214.573,148.509Z" transform="translate(-202.535 -136.647)" fill=""/>
        <path id="XMLID_238_" d="M449.885,44.036a.86.86,0,1,0,.86.86A.861.861,0,0,0,449.885,44.036Z" transform="translate(-426.645 -42.175)" fill=""/>
        <path id="XMLID_237_" d="M162.931,385.273h-.443v3.175h9.984v-3.175h-9.541Z" transform="translate(-155.442 -365.15)" fill=""/>
        <path id="XMLID_236_" d="M31.512,477.428a.677.677,0,1,0,.677.677A.678.678,0,0,0,31.512,477.428Z" transform="translate(-30.835 -452.373)" fill=""/>
        <circle id="XMLID_235_" cx="0.465" cy="0.465" r="0.465" transform="translate(22.113 23.857)" fill=""/>
        <circle id="XMLID_234_" cx="0.465" cy="0.465" r="0.465" transform="translate(1.521 2.721)" fill=""/>
      </g>
    </g>
  </g>
</svg>
