<svg xmlns="http://www.w3.org/2000/svg" width="20.682" height="20.682"
                                    viewBox="0 0 20.682 20.682">
                                    <path id="Caminho_550" data-name="Caminho 550" d="M0,332H3.676v7.271H0Zm0,0"
                                        transform="translate(0 -318.589)" fill="#fff" />
                                    <path id="Caminho_551" data-name="Caminho 551"
                                        d="M136.4,299.1l-.011-.016a1.859,1.859,0,0,0-2.519-.369l-3.876,2.554h-5.357v-1.212h4.241a1.818,1.818,0,0,0,1.818-1.818v-.606h-3.784c-.294,0-.456-.2-.685-.4a4.242,4.242,0,0,0-5.225-.275v7.948h8.686l7.108-5.324Zm0,0"
                                        transform="translate(-116.113 -284.227)" fill="#fff" />
                                    <path id="Caminho_552" data-name="Caminho 552"
                                        d="M362.212,44.082l1.3-.853a3.177,3.177,0,0,1,1.128-.435V31H361V41.946h1.212Zm0,0"
                                        transform="translate(-346.418 -29.748)" fill="#fff" />
                                    <path id="Caminho_553" data-name="Caminho 553"
                                        d="M124.635,98.223V91H121v7.654a5.269,5.269,0,0,1,3.635-.431Zm0,0"
                                        transform="translate(-116.112 -87.324)" fill="#fff" />
                                    <path id="Caminho_554" data-name="Caminho 554"
                                        d="M244.635,12.2V0H241V11.335a5.205,5.205,0,0,1,1.292.864Zm0,0"
                                        transform="translate(-231.265)" fill="#fff" />
                                </svg>