<svg  xmlns="http://www.w3.org/2000/svg" width="23.957"
                      height="23.925" viewBox="0 0 23.957 23.925">
                      <g id="_001-design-tools" data-name="001-design-tools" transform="translate(-0.911 -0.997)">
                        <g id="Grupo_135" data-name="Grupo 135" transform="translate(10.327 14.456)">
                          <path id="Caminho_3367" data-name="Caminho 3367"
                            d="M30.511,37.972a.958.958,0,0,1-.935.972l-2.5.037a.99.99,0,0,1-.972-.972.965.965,0,0,1,.972-.972l2.5-.037A1.011,1.011,0,0,1,30.511,37.972Z"
                            transform="translate(-26.1 -37)" />
                        </g>
                        <g id="Grupo_137" data-name="Grupo 137" transform="translate(10.132 17.072)">
                          <g id="Grupo_136" data-name="Grupo 136">
                            <path id="Caminho_3368" data-name="Caminho 3368"
                              d="M28.39,51.588l-.037-6.168a.374.374,0,1,0-.748,0l.037,6.13c-2.056-3.962-2.056-3.925-2.056-4-.037-.112.037-.262.561-3.514.449.15.635.075,3.065.075A1.5,1.5,0,0,0,29.773,44l.6,3.327c.112.224.112.075-1.981,4.261Z"
                              transform="translate(-25.578 -44)" />
                          </g>
                        </g>
                        <g id="Grupo_138" data-name="Grupo 138" transform="translate(10.402 0.998)">
                          <path id="Caminho_3369" data-name="Caminho 3369"
                            d="M31.8,4.4V8.514a.374.374,0,1,1-.748,0V4.775h-.523l.075,9.27a1.636,1.636,0,0,0-.935-.3l-2.5.037a1.738,1.738,0,0,0-.785.187c0-1.308-.037-4.261-.075-10.84A2.122,2.122,0,0,1,28.393,1a2.1,2.1,0,0,1,2.131,2.093v.9h.935A.407.407,0,0,1,31.8,4.4Z"
                            transform="translate(-26.3 -1)" />
                        </g>
                        <path id="Caminho_3370" data-name="Caminho 3370"
                          d="M54.505,22.345H52.188a.375.375,0,0,1-.374-.374.353.353,0,0,1,.374-.374h2.318V19.354H52.823a.375.375,0,0,1-.374-.374.353.353,0,0,1,.374-.374h1.682V16.364H52.188a.375.375,0,0,1-.374-.374.353.353,0,0,1,.374-.374h2.318V13.373H52.823A.375.375,0,0,1,52.449,13a.353.353,0,0,1,.374-.374h1.682V10.383H52.188a.374.374,0,0,1,0-.748h2.318V7.392H52.823a.375.375,0,0,1-.374-.374.353.353,0,0,1,.374-.374h1.682V4.4H52.188a.353.353,0,0,1-.374-.374.353.353,0,0,1,.374-.374h2.318V1.411a.375.375,0,0,0-.374-.374L48.711,1a.375.375,0,0,0-.374.374L48.3,24.55a.375.375,0,0,0,.374.374h5.5a.383.383,0,0,0,.374-.374Z"
                          transform="translate(-29.674 -0.002)" />
                        <g id="Grupo_139" data-name="Grupo 139" transform="translate(0.911 0.997)">
                          <path id="Caminho_3371" data-name="Caminho 3371"
                            d="M13.928,12.3h-2.99L10.9,25.72a7.075,7.075,0,0,0,2.916-.71c0-.037.075-.15.037-.112.075-.112.037.411.075-12.6Z"
                            transform="translate(-7.166 -8.075)" />
                          <path id="Caminho_3372" data-name="Caminho 3372"
                            d="M7.729,4.475V3.353A2.193,2.193,0,0,0,5.71,1H3.056A2.2,2.2,0,0,0,1,3.353V4.475Z"
                            transform="translate(-0.967 -0.997)" />
                          <path id="Caminho_3373" data-name="Caminho 3373"
                            d="M2.2,48.7l2.542,5.831a.364.364,0,0,0,.673,0l2.542-5.719A8.267,8.267,0,0,1,2.2,48.7Z"
                            transform="translate(-1.718 -30.868)" />
                          <path id="Caminho_3374" data-name="Caminho 3374"
                            d="M3.935,12.3H.944c0,13.382-.075,12.373,0,12.6a8.678,8.678,0,0,0,2.953.785Z"
                            transform="translate(-0.911 -8.075)" />
                        </g>
                      </g>
</svg>