<svg xmlns="http://www.w3.org/2000/svg" width="21.53" height="24.226" viewBox="0 0 21.53 24.226">
  <g id="layer6" transform="translate(-2.12 -1.324)">
    <path id="path1737" d="M4.363,1.324a1.983,1.983,0,0,0-1.954,1.1,2.921,2.921,0,0,0-.288,1.145V21.026a3,3,0,0,1,2.242-.86H21.409a1.981,1.981,0,0,0,1.954-1.1,2.9,2.9,0,0,0,.287-1.142V3.569a1.972,1.972,0,0,0-1.1-1.954,2.952,2.952,0,0,0-1.145-.291ZM6.157,4.016A1.8,1.8,0,0,1,7.9,5.364h3.253a1.794,1.794,0,0,1,3.476,0h3.253a1.8,1.8,0,1,1,0,.894H16.12a6.287,6.287,0,0,1,2.787,3.6,1.8,1.8,0,1,1-.9.137,5.376,5.376,0,0,0-3.476-3.476,1.792,1.792,0,0,1-3.3,0A5.384,5.384,0,0,0,7.76,9.994a1.793,1.793,0,1,1-.895-.136,6.293,6.293,0,0,1,2.788-3.6H7.9A1.795,1.795,0,1,1,6.157,4.016Zm0,.9a.9.9,0,1,0,.9.9.89.89,0,0,0-.9-.9Zm6.729,0a.9.9,0,1,0,.9.9.89.89,0,0,0-.9-.9Zm6.729,0a.9.9,0,1,0,.9.9.89.89,0,0,0-.9-.9ZM12.885,9.4a.449.449,0,0,1,.335.149l3.589,4.036a.449.449,0,0,1,.093.428L15.558,18.5a.449.449,0,0,1-.43.322H10.644a.45.45,0,0,1-.431-.322L8.866,14.013a.449.449,0,0,1,.1-.428L12.552,9.55a.447.447,0,0,1,.334-.149ZM7.055,10.745a.9.9,0,1,0,.9.9A.892.892,0,0,0,7.055,10.745Zm11.662,0a.9.9,0,1,0,.9.9A.891.891,0,0,0,18.717,10.745Zm-5.385.281v2.411h-.9V11.03L9.8,14l1.175,3.928h3.818L15.972,14Z" transform="translate(0 0)" fill=""/>
    <path id="path1755" d="M23.65,12.478v.407a1.974,1.974,0,0,1-1.1,1.954,2.963,2.963,0,0,1-1.145.292H4.363v.9H21.409a3.777,3.777,0,0,0,1.546-.384,2.938,2.938,0,0,0,.695-.481v.414a1.911,1.911,0,0,1-1.1,1.954,2.963,2.963,0,0,1-1.145.292H4.363a1.913,1.913,0,0,1-1.954-1.1,2.923,2.923,0,0,1-.288-1.146,2.921,2.921,0,0,1,.288-1.145,1.982,1.982,0,0,1,1.954-1.1H21.409a3.034,3.034,0,0,0,2.241-.859Z" transform="translate(0 7.727)" fill=""/>
  </g>
</svg>
