<svg id="dominio" xmlns="http://www.w3.org/2000/svg" width="24.095" height="24.095" viewBox="0 0 24.095 24.095">
  <g id="Grupo_43" data-name="Grupo 43" transform="translate(3.012 7.529)">
    <g id="Grupo_42" data-name="Grupo 42">
      <path id="Caminho_14" data-name="Caminho 14" d="M59.077,147.675V154.2H77.148v-6.526ZM75.79,153.8l-1.423-1.423a2.15,2.15,0,1,1,.71-.71l1.423,1.423Z" transform="translate(-59.077 -147.675)" fill=""/>
    </g>
  </g>
  <g id="Grupo_45" data-name="Grupo 45">
    <g id="Grupo_44" data-name="Grupo 44">
      <path id="Caminho_15" data-name="Caminho 15" d="M0,0V4.015H24.1V0ZM15.562,2.509H2.51v-1H15.562Zm2.51,0h-1v-1h1Zm2.008,0h-1v-1h1Zm2.008,0h-1v-1h1Z" fill=""/>
    </g>
  </g>
  <g id="Grupo_47" data-name="Grupo 47" transform="translate(16.063 9.286)">
    <g id="Grupo_46" data-name="Grupo 46">
      <path id="Caminho_16" data-name="Caminho 16" d="M317.007,182.475a1.13,1.13,0,1,0,.331.8A1.128,1.128,0,0,0,317.007,182.475Z" transform="translate(-315.077 -182.145)" fill=""/>
    </g>
  </g>
  <g id="Grupo_49" data-name="Grupo 49" transform="translate(0 5.019)">
    <g id="Grupo_48" data-name="Grupo 48">
      <path id="Caminho_17" data-name="Caminho 17" d="M0,98.444V117.52H24.1V98.444ZM2.008,99.95H22.087v8.534H2.008Zm4.6,15.7-.96.009-.628-1.993-.628,1.993-.96-.009-1.475-5.02.963-.283,1.01,3.437.611-1.941H5.5l.611,1.941,1.01-3.437.963.283Zm7.028,0-.96.009-.628-1.993-.628,1.993-.96-.009-1.475-5.02.963-.283,1.01,3.437.611-1.941h.957l.611,1.941,1.01-3.437.963.283Zm7.028,0-.96.009-.628-1.993-.628,1.993-.96-.009-1.475-5.02.963-.283,1.01,3.437.611-1.941h.957l.611,1.941,1.01-3.437.963.283Z" transform="translate(0 -98.444)" fill=""/>
    </g>
  </g>
</svg>
