<svg xmlns="http://www.w3.org/2000/svg" width="24.008" height="24.008" viewBox="0 0 24.008 24.008">
                            <g id="Email_Marketing" data-name="Email Marketing" transform="translate(-4 -4)">
                              <path id="Caminho_3311" data-name="Caminho 3311" d="M16.223,36.554a.429.429,0,0,1-.437,0L4,29.57V42.187a.429.429,0,0,0,.429.429H27.579a.429.429,0,0,0,.429-.429V29.57Z" transform="translate(0 -14.608)" />
                              <path id="Caminho_3312" data-name="Caminho 3312" d="M53,23.309v3.466l2.6-1.54Z" transform="translate(-27.993 -11.031)" />
                              <path id="Caminho_3313" data-name="Caminho 3313" d="M7.537,23.309l-2.6,1.926,2.6,1.54Z" transform="translate(-0.536 -11.031)" />
                              <path id="Caminho_3314" data-name="Caminho 3314" d="M25,18.542l6,1.5V14.281l-6,1.5v2.76Z" transform="translate(-11.997 -5.873)"/>
                              <path id="Caminho_3315" data-name="Caminho 3315" d="M41,19.717h.857V12H41v7.717Z" transform="translate(-21.138 -4.57)" />
                              <path id="Caminho_3316" data-name="Caminho 3316" d="M27,29.018h.857V27L27,26.781Z" transform="translate(-13.14 -13.014)" />
                              <path id="Caminho_3317" data-name="Caminho 3317" d="M21,20h.857v.857H21Z" transform="translate(-9.712 -9.141)" />
                              <path id="Caminho_3318" data-name="Caminho 3318" d="M21.146,21.079l8.146-4.827V4.429A.429.429,0,0,0,28.862,4H13.429A.429.429,0,0,0,13,4.429V16.252ZM15.572,10.431A.429.429,0,0,1,16,10h1.286V9.573a.429.429,0,0,1,.325-.416l6.535-1.634V7a.429.429,0,0,1,.429-.429H26.29A.429.429,0,0,1,26.719,7v8.574A.429.429,0,0,1,26.29,16H24.575a.429.429,0,0,1-.429-.429v-.523l-3.43-.857v2.237a.429.429,0,0,1-.429.429H18.573a.429.429,0,0,1-.429-.429V13.552l-.533-.133A.429.429,0,0,1,17.287,13v-.429H16a.429.429,0,0,1-.429-.429Z" transform="translate(-5.142)" />
                            </g>
                          </svg>