<svg id="_001-stationary" data-name="001-stationary" xmlns="http://www.w3.org/2000/svg" width="24.051" height="24.051" viewBox="0 0 24.051 24.051">
  <g id="Grupo_141" data-name="Grupo 141" transform="translate(12.848 0.996)">
    <g id="Grupo_140" data-name="Grupo 140">
      <path id="Caminho_3375" data-name="Caminho 3375" d="M273.515,21.213v1.728h1.728Z" transform="translate(-273.515 -21.213)" fill="#f55622"/>
    </g>
  </g>
  <g id="Grupo_143" data-name="Grupo 143" transform="translate(12.734 6.979)">
    <g id="Grupo_142" data-name="Grupo 142">
      <rect id="Retângulo_307" data-name="Retângulo 307" width="7.075" height="3.676" fill="#f55622"/>
    </g>
  </g>
  <g id="Grupo_145" data-name="Grupo 145" transform="translate(10.254 14.91)">
    <g id="Grupo_144" data-name="Grupo 144">
      <path id="Caminho_3376" data-name="Caminho 3376" d="M218.291,317.407l6.017,3.741,6.017-3.741Z" transform="translate(-218.291 -317.407)" fill="#f55622"/>
    </g>
  </g>
  <g id="Grupo_147" data-name="Grupo 147" transform="translate(8.491 15.473)">
    <g id="Grupo_146" data-name="Grupo 146">
      <path id="Caminho_3377" data-name="Caminho 3377" d="M188.535,334.232l-7.78-4.837v8.578h15.56v-8.578Z" transform="translate(-180.755 -329.395)" fill="#f55622"/>
    </g>
  </g>
  <g id="Grupo_149" data-name="Grupo 149">
    <g id="Grupo_148" data-name="Grupo 148">
      <path id="Caminho_3378" data-name="Caminho 3378" d="M11.439,4.134V0H0V24.051H7.082V13.5h8.491V12.065H11.324V5.57h4.249V4.134ZM2.465,2.552H6.813V3.962H2.465ZM9.649,10H2.465V8.587H9.649V10Zm0-3.017H2.465V5.57H9.649V6.979Z" fill="#f55622"/>
    </g>
  </g>
</svg>
