<svg xmlns="http://www.w3.org/2000/svg" width="24.032" height="23.661" viewBox="0 0 24.032 23.661">
  <path id="_001-marketing-strategy" data-name="001-marketing-strategy" d="M8.369,9.25a.632.632,0,1,0,.894.895l.851-.851.851.851a.633.633,0,1,0,.894-.895L11.009,8.4l.851-.851a.632.632,0,1,0-.894-.895l-.851.851-.851-.851a.633.633,0,0,0-.894.895L9.22,8.4Zm5.509,7.811a.7.7,0,1,1,.7-.7.7.7,0,0,1-.7.7Zm0-2.674a1.969,1.969,0,1,0,1.969,1.969A1.97,1.97,0,0,0,13.878,14.387Zm-.411-1.357h-2.8a1.117,1.117,0,0,0-1.116,1.116v3.548a.632.632,0,0,1-1.265,0V14.145a2.383,2.383,0,0,1,2.38-2.38h2.8a1.117,1.117,0,0,0,1.115-1.116V7.1a.632.632,0,0,1,1.265,0v3.548a2.383,2.383,0,0,1-2.38,2.38Zm10.565,7.387a.424.424,0,0,1-.422.422H.421A.424.424,0,0,1,0,20.417V4.378a.424.424,0,0,1,.421-.422H23.61a.425.425,0,0,1,.422.422V20.417ZM12.648,23.8V22.1H11.383v1.7L7.237,26.451a.633.633,0,1,0,.682,1.066l4.1-2.622,4.1,2.622a.633.633,0,1,0,.682-1.065Z" transform="translate(0 -3.956)" fill="" fill-rule="evenodd"/>
</svg>
