<svg id="b" xmlns="http://www.w3.org/2000/svg" width="92" height="92" viewBox="0 0 92 92">
  <g id="Grupo_54" data-name="Grupo 54" transform="translate(0)">
    <g id="Grupo_267" data-name="Grupo 267">
      <circle id="Elipse_176" data-name="Elipse 176" cx="32.527" cy="32.527" r="32.527" transform="translate(0 46) rotate(-45)" fill="#64c3c7"/>
      <path id="Caminho_3226" data-name="Caminho 3226" d="M257.724,244.1H266.6V223.63h6.554l1.311-8.269H266.6V209.11c0-2.319,2.218-3.63,4.336-3.63h3.832v-6.857l-6.857-.3c-6.554-.4-10.184,4.739-10.184,10.89v6.151h-7.462v8.269h7.462Z" transform="translate(-217.823 -173.556)" fill="#fff" fill-rule="evenodd"/>
    </g>
    <path id="Caminho_3379" data-name="Caminho 3379" d="M32.527,0A32.527,32.527,0,1,1,0,32.527,32.527,32.527,0,0,1,32.527,0Z" transform="translate(0 46) rotate(-45)" fill="#008183"/>
  </g>
  <path id="Caminho_3436" data-name="Caminho 3436" d="M257.724,244.1H266.6V223.63h6.554l1.311-8.269H266.6V209.11c0-2.319,2.218-3.63,4.336-3.63h3.832v-6.857l-6.857-.3c-6.554-.4-10.184,4.739-10.184,10.89v6.151h-7.462v8.269h7.462Z" transform="translate(-217.823 -173.556)" fill="#fff" fill-rule="evenodd"/>
</svg>
