<svg xmlns="http://www.w3.org/2000/svg" width="24" height="23.999" viewBox="0 0 24 23.999">
                            <g id="_030-target" data-name="030-target" transform="translate(0 -0.008)">
                              <g id="Grupo_131" data-name="Grupo 131" transform="translate(0 0.008)">
                                <path id="Caminho_3306" data-name="Caminho 3306" d="M23.313.694a2.351,2.351,0,0,0-3.32,0L15.507,5.18a10.2,10.2,0,1,0,3.32,3.32l4.486-4.486A2.35,2.35,0,0,0,23.313.694ZM14.7,12.623,15.33,12a5.5,5.5,0,1,1-3.32-3.32l-.626.626a.787.787,0,0,0-.183.289l-.154.429a3.928,3.928,0,1,0,2.94,2.94l.429-.154A.787.787,0,0,0,14.7,12.623Zm-4.561,1.241a.783.783,0,0,0,.818.183l1.528-.549a2.319,2.319,0,0,1,.034.334,2.348,2.348,0,1,1-2.348-2.348,2.317,2.317,0,0,1,.334.034l-.549,1.528A.782.782,0,0,0,10.143,13.864Zm1.851-1.851.538-1.5.96.96Zm-1.82,10.429A8.609,8.609,0,1,1,14.367,6.32L13.2,7.483a7.07,7.07,0,1,0,3.32,3.32L17.687,9.64a8.6,8.6,0,0,1-7.513,12.8ZM22.207,2.907l-.229.229L20.871,2.03,21.1,1.8a.8.8,0,0,1,1.107,0A.782.782,0,0,1,22.207,2.907Z"  />
                              </g>
                            </g>
                          </svg>