<svg id="Componente_48_1" data-name="Componente 48 – 1" xmlns="http://www.w3.org/2000/svg" width="92" height="92" viewBox="0 0 300 300">
                              <circle id="Elipse_192" data-name="Elipse 192" cx="106" cy="106" r="106" transform="translate(44 44)" fill="#64c3c7"/>
                              <g id="google" transform="translate(91 90)">
                                <path id="Caminho_3424" data-name="Caminho 3424" d="M174.617,35.156V0h-13.29L154.3,35.156Z" transform="translate(-118.826)" fill="#fff"/>
                                <path id="Caminho_3425" data-name="Caminho 3425" d="M365.326,35.156h27.624L379.771,2.211A3.517,3.517,0,0,0,376.506,0H358.294Z" transform="translate(-275.012 0)" fill="#fff"/>
                                <path id="Caminho_3426" data-name="Caminho 3426" d="M11.267,192.683a17.541,17.541,0,0,0,22.872-4.662,17.563,17.563,0,0,0,28.125,0,17.563,17.563,0,0,0,28.125,0,17.532,17.532,0,0,0,22.865,4.662A17.376,17.376,0,0,0,121.571,181H2.957A17.386,17.386,0,0,0,11.267,192.683Z" transform="translate(-2.957 -138.578)" fill="#fff"/>
                                <path id="Caminho_3427" data-name="Caminho 3427" d="M19.021,2.211,5.843,35.156H33.467L40.5,0H22.286A3.517,3.517,0,0,0,19.021,2.211Z" transform="translate(-5.167)" fill="#fff"/>
                                <path id="Caminho_3428" data-name="Caminho 3428" d="M272.043,0V35.156h20.321L285.332,0Z" transform="translate(-208.976)" fill="#fff"/>
                                <path id="Caminho_3429" data-name="Caminho 3429" d="M111.859,252.074a24.509,24.509,0,0,1-28.125,0,24.509,24.509,0,0,1-28.125,0,24.307,24.307,0,0,1-24.609,2v55.407a3.514,3.514,0,0,0,3.516,3.516h98.438a3.514,3.514,0,0,0,3.516-3.516V254.072a24.307,24.307,0,0,1-24.609-2ZM104.828,298.7a17.578,17.578,0,1,1,12.432-30.006,3.518,3.518,0,0,1-4.978,4.971,10.448,10.448,0,0,0-7.453-3.09,10.547,10.547,0,1,0,9.9,14.063h-6.384a3.516,3.516,0,1,1,0-7.031h10.547a3.514,3.514,0,0,1,3.516,3.516A17.6,17.6,0,0,1,104.828,298.7Z" transform="translate(-24.427 -192.994)" fill="#fff"/>
                              </g>
                              <rect id="Retângulo_372" data-name="Retângulo 372" width="300" height="300" fill="none"/>
                            </svg>