<svg id="b" xmlns="http://www.w3.org/2000/svg" width="92" height="92" viewBox="0 0 92 92">
  <g id="Componente_38_3" data-name="Componente 38 – 3" transform="translate(0 0)">
    <circle id="Elipse_177" data-name="Elipse 177" cx="32.527" cy="32.527" r="32.527" transform="translate(0 46) rotate(-45)" fill="#008183"/>
  </g>
  <g id="google" transform="translate(26.612 26.386)">
    <path id="Caminho_3234" data-name="Caminho 3234" d="M160.939,11.493V0h-4.344l-2.3,11.493Z" transform="translate(-142.701)" fill="#fff"/>
    <path id="Caminho_3235" data-name="Caminho 3235" d="M360.593,11.493h9.03L365.315.723A1.15,1.15,0,0,0,364.248,0h-5.954Z" transform="translate(-331.069 0)" fill="#fff"/>
    <path id="Caminho_3236" data-name="Caminho 3236" d="M5.674,184.819a5.734,5.734,0,0,0,7.477-1.524,5.741,5.741,0,0,0,9.194,0,5.741,5.741,0,0,0,9.194,0,5.731,5.731,0,0,0,7.475,1.524A5.68,5.68,0,0,0,41.733,181H2.957a5.683,5.683,0,0,0,2.717,3.819Z" transform="translate(-2.957 -167.132)" fill="#fff"/>
    <path id="Caminho_3237" data-name="Caminho 3237" d="M10.151.723,5.843,11.493h9.03L17.172,0H11.218a1.15,1.15,0,0,0-1.067.723Z" transform="translate(-5.622)" fill="#fff"/>
    <path id="Caminho_3238" data-name="Caminho 3238" d="M272.043,0V11.493h6.643L276.387,0Z" transform="translate(-251.426)" fill="#fff"/>
    <path id="Caminho_3239" data-name="Caminho 3239" d="M57.433,252.074a8.012,8.012,0,0,1-9.194,0,8.012,8.012,0,0,1-9.194,0,7.946,7.946,0,0,1-8.045.653V270.84a1.149,1.149,0,0,0,1.149,1.149h32.18a1.149,1.149,0,0,0,1.149-1.149V252.727a7.946,7.946,0,0,1-8.045-.653Zm-2.3,15.241a5.746,5.746,0,1,1,4.064-9.809,1.15,1.15,0,1,1-1.627,1.625,3.415,3.415,0,0,0-2.437-1.01,3.448,3.448,0,1,0,3.236,4.6H56.284a1.149,1.149,0,1,1,0-2.3h3.448a1.149,1.149,0,0,1,1.149,1.149A5.753,5.753,0,0,1,55.135,267.315Z" transform="translate(-28.851 -232.76)" fill="#fff"/>
  </g>
</svg>
