<svg id="b" xmlns="http://www.w3.org/2000/svg" width="92" height="92" viewBox="0 0 300 300">
                              <g id="Grupo_269" data-name="Grupo 269">
                                <circle id="Elipse_187" data-name="Elipse 187" cx="106.066" cy="106.066" r="106.066" transform="translate(0 150) rotate(-45)" fill="#64c3c7"/>
                                <path id="Caminho_3430" data-name="Caminho 3430" d="M195.789,200.847h62.392a36.7,36.7,0,0,1,36.53,36.53v62.069a36.7,36.7,0,0,1-36.53,36.53H195.789a36.7,36.7,0,0,1-36.53-36.53V237.377a36.7,36.7,0,0,1,36.53-36.53h0Zm67.565,23.6h0a7.867,7.867,0,0,1,7.759,7.759h0a7.867,7.867,0,0,1-7.759,7.759h0A7.658,7.658,0,0,1,255.6,232.2h0a7.658,7.658,0,0,1,7.759-7.759Zm-36.53,7.112h.323A37.259,37.259,0,0,1,264,268.412h0a37.046,37.046,0,0,1-36.854,36.854h-.323a36.77,36.77,0,0,1-36.53-36.854h0c0-20.043,16.487-36.854,36.53-36.854Zm0,12.608h.323a24.422,24.422,0,0,1,24.246,24.246h0a24.491,24.491,0,0,1-24.246,24.569h-.323a24.491,24.491,0,0,1-24.246-24.569h0a24.422,24.422,0,0,1,24.246-24.246Zm-30.711-31.681h61.746A25.248,25.248,0,0,1,283.074,237.7v61.423a25.248,25.248,0,0,1-25.216,25.216H196.112A25.248,25.248,0,0,1,170.9,299.123V237.7a25.248,25.248,0,0,1,25.216-25.216h0Z" transform="translate(-76.986 -118.412)" fill="#fff" fill-rule="evenodd"/>
                              </g>
                            </svg>