<svg id="b" xmlns="http://www.w3.org/2000/svg" width="92" height="92" viewBox="0 0 92 92">
  <g id="Componente_38_1" data-name="Componente 38 – 1" transform="translate(0 0)">
    <circle id="Elipse_177" data-name="Elipse 177" cx="32.527" cy="32.527" r="32.527" transform="translate(0 46) rotate(-45)" fill="#008183"/>
  </g>
  <path id="Caminho_3437" data-name="Caminho 3437" d="M170.461,200.847h19.134a11.255,11.255,0,0,1,11.2,11.2v19.035a11.255,11.255,0,0,1-11.2,11.2H170.461a11.255,11.255,0,0,1-11.2-11.2V212.05a11.255,11.255,0,0,1,11.2-11.2h0Zm20.72,7.237h0a2.412,2.412,0,0,1,2.379,2.379h0a2.412,2.412,0,0,1-2.379,2.379h0a2.349,2.349,0,0,1-2.379-2.379h0a2.349,2.349,0,0,1,2.379-2.379Zm-11.2,2.181h.1a11.426,11.426,0,0,1,11.3,11.3h0a11.361,11.361,0,0,1-11.3,11.3h-.1a11.276,11.276,0,0,1-11.2-11.3h0a11.34,11.34,0,0,1,11.2-11.3Zm0,3.866h.1a7.489,7.489,0,0,1,7.435,7.435h0a7.511,7.511,0,0,1-7.435,7.535h-.1a7.511,7.511,0,0,1-7.435-7.535h0a7.49,7.49,0,0,1,7.435-7.435Zm-9.418-9.716H189.5a7.743,7.743,0,0,1,7.733,7.733v18.836a7.743,7.743,0,0,1-7.733,7.733H170.56a7.743,7.743,0,0,1-7.733-7.733V212.149a7.743,7.743,0,0,1,7.733-7.733h0Z" transform="translate(-134.028 -175.567)" fill="#fff" fill-rule="evenodd"/>
</svg>
