<svg xmlns="http://www.w3.org/2000/svg" width="24.022" height="24.022" viewBox="0 0 24.022 24.022">
  <g id="integracao-de-dados" transform="translate(-2 -2)">
    <path id="Caminho_3292" data-name="Caminho 3292" d="M16.162,14.011a1.161,1.161,0,0,0,1.162-1.162V5.487H27.4V3.162H19.262L18.487,2H15V12.849A1.161,1.161,0,0,0,16.162,14.011ZM16.55,3.162h.775a.387.387,0,0,1,0,.775H16.55a.387.387,0,0,1,0-.775Z" transform="translate(-7.963 0)" fill=""/>
    <path id="Caminho_3293" data-name="Caminho 3293" d="M9.775,38.487h6.974a.192.192,0,0,0,.05-.012A1.552,1.552,0,0,0,17.923,39.6a.192.192,0,0,0-.012.05v1.162h.775V39.649a.192.192,0,0,0-.012-.05,1.547,1.547,0,0,0,1.12-1.124.272.272,0,0,0,.054.012h6.974v2.325H27.6V38.1a.389.389,0,0,0-.387-.387H19.849a.271.271,0,0,0-.054.012,1.548,1.548,0,0,0-1.12-1.12.272.272,0,0,0,.012-.054V35h-.775v1.55a.192.192,0,0,0,.012.05,1.548,1.548,0,0,0-1.12,1.12c-.019,0-.035-.008-.054-.008H9.387A.386.386,0,0,0,9,38.1v2.712h.775Z" transform="translate(-4.288 -20.214)" fill=""/>
    <path id="Caminho_3294" data-name="Caminho 3294" d="M34.785,22.37A1.085,1.085,0,1,0,33.7,21.285,1.083,1.083,0,0,0,34.785,22.37Z" transform="translate(-19.418 -11.148)" fill=""/>
    <path id="Caminho_3295" data-name="Caminho 3295" d="M22.369,19.587a1.933,1.933,0,0,1-.4,1.162h9.7a1.549,1.549,0,0,0,1.55-1.55V13H22.369Zm2.518-3.2.717-.12a2,2,0,0,1,.151-.364l-.422-.593.7-.7.593.426a2.189,2.189,0,0,1,.364-.155l.116-.717h.988l.12.717a2.337,2.337,0,0,1,.364.155l.593-.426.7.7-.426.593a2,2,0,0,1,.151.364l.721.12v.988l-.721.116a2,2,0,0,1-.151.364l.426.593-.7.7-.593-.422a2,2,0,0,1-.364.151l-.12.717H27.1l-.116-.717a1.9,1.9,0,0,1-.364-.151l-.593.422-.7-.7.422-.593a2,2,0,0,1-.151-.364l-.717-.116Z" transform="translate(-12.233 -6.738)" fill=""/>
    <path id="Caminho_3296" data-name="Caminho 3296" d="M25,56.649h6.2V52H25Zm1.55-3.487h3.1a.387.387,0,1,1,0,.775h-3.1a.387.387,0,1,1,0-.775Zm0,1.55H28.1a.387.387,0,0,1,0,.775H26.55a.387.387,0,0,1,0-.775Z" transform="translate(-14.089 -30.627)" fill=""/>
    <path id="Caminho_3297" data-name="Caminho 3297" d="M48,52v4.649h6.2V52Zm3.1,3.487H49.55a.387.387,0,1,1,0-.775H51.1a.387.387,0,1,1,0,.775Zm1.55-1.55h-3.1a.387.387,0,1,1,0-.775h3.1a.387.387,0,1,1,0,.775Z" transform="translate(-28.177 -30.627)" fill=""/>
    <path id="Caminho_3298" data-name="Caminho 3298" d="M2,56.649H8.2V52H2Zm1.55-3.487h3.1a.387.387,0,1,1,0,.775H3.55a.387.387,0,1,1,0-.775Zm0,1.55H5.1a.387.387,0,0,1,0,.775H3.55a.387.387,0,0,1,0-.775Z" transform="translate(0 -30.627)" fill=""/>
  </g>
</svg>
