<svg id="Grupo_150" data-name="Grupo 150" xmlns="http://www.w3.org/2000/svg" width="23.45" height="23.45" viewBox="0 0 23.45 23.45">
  <g id="Grupo_54" data-name="Grupo 54" transform="translate(2.927 6.838)">
    <g id="Grupo_53" data-name="Grupo 53">
      <path id="Caminho_84" data-name="Caminho 84" d="M14.373,21.579a.489.489,0,0,0-.435-.261H12.472V15.945a.477.477,0,0,0-.481-.49H9.06a.491.491,0,0,0-.49.49v5.373H7.1a.494.494,0,0,0-.435.261.487.487,0,0,0,.032.5l3.421,4.887a.487.487,0,0,0,.4.211.481.481,0,0,0,.4-.211l3.421-4.887A.477.477,0,0,0,14.373,21.579Z" transform="translate(-6.614 -15.455)" fill=""/>
    </g>
  </g>
  <g id="Grupo_56" data-name="Grupo 56" transform="translate(11.725 7.818)">
    <g id="Grupo_55" data-name="Grupo 55">
      <path id="Caminho_85" data-name="Caminho 85" d="M32.853,17.67H26.99a.49.49,0,1,0,0,.98h5.863a.49.49,0,1,0,0-.98Z" transform="translate(-26.5 -17.67)" fill=""/>
    </g>
  </g>
  <g id="Grupo_58" data-name="Grupo 58" transform="translate(11.725 10.75)">
    <g id="Grupo_57" data-name="Grupo 57">
      <path id="Caminho_86" data-name="Caminho 86" d="M32.853,24.3H26.99a.49.49,0,1,0,0,.98h5.863a.49.49,0,1,0,0-.98Z" transform="translate(-26.5 -24.295)" fill=""/>
    </g>
  </g>
  <g id="Grupo_60" data-name="Grupo 60" transform="translate(12.701 12.701)">
    <g id="Grupo_59" data-name="Grupo 59">
      <path id="Caminho_87" data-name="Caminho 87" d="M39.084,32.63l-.934-.234.495-.829a.485.485,0,0,0-.073-.6l-1.383-1.383a.486.486,0,0,0-.6-.073l-.829.495-.234-.934a.49.49,0,0,0-.472-.371H33.1a.481.481,0,0,0-.472.371l-.234.934-.829-.495a.485.485,0,0,0-.6.073l-1.383,1.383a.485.485,0,0,0-.073.6l.495.829-.934.234a.49.49,0,0,0-.371.472v1.956a.481.481,0,0,0,.371.472l.934.234-.495.829a.485.485,0,0,0,.073.6l1.383,1.383a.492.492,0,0,0,.6.073l.829-.495.234.934a.49.49,0,0,0,.472.371h1.956a.481.481,0,0,0,.472-.371l.234-.934.829.495a.485.485,0,0,0,.6-.073l1.383-1.383a.485.485,0,0,0,.073-.6l-.495-.829.934-.234a.49.49,0,0,0,.371-.472V33.1A.485.485,0,0,0,39.084,32.63Zm-5,3.893a2.441,2.441,0,1,1,2.441-2.441A2.443,2.443,0,0,1,34.082,36.523Z" transform="translate(-28.705 -28.705)" fill=""/>
    </g>
  </g>
  <g id="Grupo_62" data-name="Grupo 62">
    <g id="Grupo_61" data-name="Grupo 61">
      <path id="Caminho_88" data-name="Caminho 88" d="M19.539,0H1.951A1.954,1.954,0,0,0,0,1.956V19.544A1.958,1.958,0,0,0,1.956,21.5H11.986a.514.514,0,0,0,.362-.156.5.5,0,0,0,.128-.371,1.4,1.4,0,0,1,0-.311.489.489,0,0,0-.183-.444,1.482,1.482,0,0,1-.366-.431.485.485,0,0,0-.421-.243H1.956V4.887H19.544V11.51a.485.485,0,0,0,.243.421,1.521,1.521,0,0,1,.426.357.867.867,0,0,0,1.127.06.488.488,0,0,0,.156-.362V1.956A1.958,1.958,0,0,0,19.539,0ZM2.441,2.931a.488.488,0,1,1,.49-.485A.491.491,0,0,1,2.441,2.931Zm1.956,0a.49.49,0,1,1,.49-.49A.491.491,0,0,1,4.4,2.936Zm1.956,0a.5.5,0,0,1-.49-.495.49.49,0,1,1,.49.495Z" fill=""/>
    </g>
  </g>
</svg>
