<svg id="b" xmlns="http://www.w3.org/2000/svg" width="92" height="92" viewBox="0 0 300 300">
                              <g id="Grupo_270" data-name="Grupo 270" transform="translate(0 0)">
                                <g id="Grupo_275" data-name="Grupo 275">
                                  <circle id="Elipse_188" data-name="Elipse 188" cx="106.066" cy="106.066" r="106.066" transform="translate(0 150) rotate(-45)" fill="#64c3c7"/>
                                  <path id="Caminho_3431" data-name="Caminho 3431" d="M216.3,265.9H240.19v80.211H216.3Zm11.8-40.7a14.45,14.45,0,0,1,0,28.9,14.453,14.453,0,0,1,0-28.9Zm26.245,40.7h23.591V277.1a27.3,27.3,0,0,1,22.707-12.091h6.488a27.248,27.248,0,0,1,27.13,27.13v53.965H310.669v-7.372h0V302.76h0c-.295-9.142-6.488-16.219-15.629-16.219h0a16.944,16.944,0,0,0-17.1,16.219h0v43.349H254.345V265.9Z" transform="translate(-125.296 -137.189)" fill="#fff" fill-rule="evenodd"/>
                                </g>
                              </g>
                            </svg>