<svg id="b" xmlns="http://www.w3.org/2000/svg" width="92" height="92" viewBox="0 0 92 92">
  <g id="Grupo_58" data-name="Grupo 58" transform="translate(0 0)">
    <circle id="Elipse_180" data-name="Elipse 180" cx="32.527" cy="32.527" r="32.527" transform="translate(0 46) rotate(-45)" fill="#008183"/>
    <path id="Caminho_3230" data-name="Caminho 3230" d="M214.668,237.683h7.325v24.6h-7.325Zm3.617-12.48a4.431,4.431,0,0,1,0,8.862,4.432,4.432,0,0,1,0-8.862Zm8.049,12.48h7.235v3.436a8.371,8.371,0,0,1,6.963-3.708h1.99a8.356,8.356,0,0,1,8.32,8.32v16.549h-7.235V260.02h0V248.987h0a4.81,4.81,0,0,0-4.793-4.974h0a5.2,5.2,0,0,0-5.245,4.974h0v13.294h-7.235v-24.6Z" transform="translate(-186.759 -198.212)" fill="#fff" fill-rule="evenodd"/>
  </g>
</svg>
