<svg xmlns="http://www.w3.org/2000/svg" width="24" height="20.692" viewBox="0 0 24 20.692">
  <g id="online-shopping" transform="translate(0 -35.285)">
    <path id="Caminho_45" data-name="Caminho 45" d="M151.854,412.162h-1.112v1.472h10.332v-1.472h-1.112l-.35-1.783H152.2Z" transform="translate(-143.908 -357.657)" fill="#caa9e8"/>
    <path id="Caminho_46" data-name="Caminho 46" d="M117.507,160.843l.343-1.819h-4.028l.343,1.819Z" transform="translate(-108.534 -117.964)" fill="#caa9e8"/>
    <path id="Caminho_47" data-name="Caminho 47" d="M0,344.375H24v1.767H0Z" transform="translate(0 -294.662)" fill="#caa9e8"/>
    <path id="Caminho_48" data-name="Caminho 48" d="M24,35.285H0v13.7H24ZM6.456,47.038H5.05V45.566H6.456Zm3.012,0H8.062V45.566H9.469ZM3.517,39.205H2.7V37.733H4.683l.388,2.152h5.809l-.858,4.764H4.5Zm17.766,6.743H14.11V44.476h7.173Zm0-2.945H14.11V41.531h7.173ZM14.11,40.059V38.586h7.173v1.472Z" fill="#caa9e8"/>
  </g>
</svg>
