<svg xmlns="http://www.w3.org/2000/svg" width="21.299" height="24.23" viewBox="0 0 21.299 24.23">
  <g id="manual_normas_graficas" transform="translate(-30.964)">
    <path id="Caminho_3288" data-name="Caminho 3288" d="M197.6,170.415a3.552,3.552,0,0,1,1.3,2.741v3.016h2.839v-3.016a3.552,3.552,0,0,1,1.3-2.741,4.258,4.258,0,0,0,.124-6.454V165.9a.71.71,0,0,1-.208.5l-.946.946a.71.71,0,0,1-.5.208h-2.366a.71.71,0,0,1-.5-.208l-.946-.946a.71.71,0,0,1-.208-.5v-1.942A4.258,4.258,0,0,0,197.6,170.415Z" transform="translate(-157.277 -156.202)" fill=""/>
    <path id="Caminho_3289" data-name="Caminho 3289" d="M80.912,454.13V452H62.456a1.42,1.42,0,1,0,0,2.839H80.2A.71.71,0,0,0,80.912,454.13Z" transform="translate(-28.649 -430.61)" fill=""/>
    <path id="Caminho_3290" data-name="Caminho 3290" d="M121.036,19.971H126V16.955a2.137,2.137,0,0,0-.781-1.648A5.68,5.68,0,0,1,126.41,5.8a.71.71,0,0,1,1.014.641V9.407l.531.531h1.778l.531-.531V6.441a.71.71,0,0,1,1.014-.641,5.68,5.68,0,0,1,1.187,9.507,2.137,2.137,0,0,0-.781,1.648v3.016h6.389V.71a.71.71,0,0,0-.71-.71H121.036Zm3.549-17.084H133.1a.71.71,0,1,1,0,1.42h-8.518a.71.71,0,1,1,0-1.42Z" transform="translate(-85.81)" fill=""/>
    <path id="Caminho_3291" data-name="Caminho 3291" d="M30.995,22.418a2.843,2.843,0,0,1,2.812-2.448V0H33.12a2.156,2.156,0,0,0-2.153,2.153C30.967,23.7,30.949,22.134,30.995,22.418Z" transform="translate(0)" fill=""/>
  </g>
</svg>
