<svg xmlns="http://www.w3.org/2000/svg" width="23.581"
                      height="23.58" viewBox="0 0 23.581 23.58">
                      <path id="_001-social-media-marketing" data-name="001-social-media-marketing"
                        d="M1.2,10.084H2.377v1.931a.369.369,0,0,0,.182.319.378.378,0,0,0,.185.049.372.372,0,0,0,.185-.049l3.9-2.25H12.18a1.213,1.213,0,0,0,1.212-1.212V1.211A1.213,1.213,0,0,0,12.18,0H1.2A1.214,1.214,0,0,0-.011,1.211V8.872A1.214,1.214,0,0,0,1.2,10.084ZM3.244,6.193a.787.787,0,0,1-.765-.785V3.686A.788.788,0,0,1,3.265,2.9H5.039l.206-.063L8.771,1.3a.376.376,0,0,1,.148-.031,1.125,1.125,0,0,1,1.123,1.123v.98a1.23,1.23,0,0,1,0,2.346V6.7A1.124,1.124,0,0,1,8.919,7.824a.377.377,0,0,1-.148-.031L6.21,6.678v.179a.786.786,0,0,1-.784.786H5.282l.169,1.1a.369.369,0,0,1-.365.425H4.015A.37.37,0,0,1,3.65,8.85ZM4.33,8.426,3.989,6.194h.326l.343,2.232Zm1.143-1.57a.049.049,0,0,1-.048.049H5.169L5.062,6.2l.183.057.228.1Zm4.693-2.309a.5.5,0,0,1-.124.326V4.222a.5.5,0,0,1,.124.326ZM5.519,3.521,8.982,2.013a.386.386,0,0,1,.322.38V6.7a.386.386,0,0,1-.322.38L5.519,5.574a.248.248,0,0,0-.037-.014L5.46,5.553V3.542l.02-.006.039-.015Zm-2.3.165a.051.051,0,0,1,.05-.049H4.723v1.82H3.265a.051.051,0,0,1-.05-.049ZM22.359,11.2a1.212,1.212,0,0,1,1.21,1.211v7.661a1.212,1.212,0,0,1-1.21,1.211H17l-3.9,2.251a.368.368,0,0,1-.552-.319V21.28H11.379a1.212,1.212,0,0,1-1.21-1.211V12.407a1.212,1.212,0,0,1,1.21-1.211Zm-2.568,4.6-4.435-2.56a.367.367,0,0,0-.552.319v5.12a.368.368,0,0,0,.183.319.373.373,0,0,0,.185.05.362.362,0,0,0,.185-.05l4.435-2.56a.368.368,0,0,0,0-.638Zm-4.25,2.241,3.329-1.922-3.329-1.922ZM19.748,0A3.822,3.822,0,1,0,23.57,3.822,3.823,3.823,0,0,0,19.748,0ZM21,1.915a1.328,1.328,0,0,1,.88,1.175c.1,1.182-1.375,2.321-1.949,2.66a.368.368,0,0,1-.187.051.363.363,0,0,1-.187-.051c-.576-.339-2.047-1.478-1.951-2.66a1.327,1.327,0,0,1,.88-1.175,1.386,1.386,0,0,1,1.258.2A1.381,1.381,0,0,1,21,1.915ZM19.748,5c-.669-.451-1.449-1.263-1.4-1.847a.59.59,0,0,1,.385-.538.567.567,0,0,1,.185-.031.777.777,0,0,1,.561.277.368.368,0,0,0,.541,0,.708.708,0,0,1,.745-.246.592.592,0,0,1,.387.538c.048.584-.734,1.4-1.4,1.847ZM3.813,15.935a3.822,3.822,0,1,0,3.822,3.822,3.823,3.823,0,0,0-3.822-3.822ZM1.932,19.524h.527a.1.1,0,0,1,.1.1V21.21a.1.1,0,0,1-.1.1H1.932a.1.1,0,0,1-.1-.1V19.629a.1.1,0,0,1,.1-.1Zm1.317,1.639c-.043-.011-.086-.024-.127-.038l-.07-.025a.1.1,0,0,1-.07-.1V19.98a.1.1,0,0,1,.1-.1l.253-.008a.214.214,0,0,0,.156-.076c.093-.111.182-.235.265-.353a7.555,7.555,0,0,0,.525-.864l.164-.318a.1.1,0,0,1,.2.038l.033.356a3,3,0,0,1,0,.572.21.21,0,0,0,.053.163.206.206,0,0,0,.155.069h.8a.1.1,0,0,1,.1.129l-.372,1.559a.1.1,0,0,1-.1.08H3.457a.1.1,0,0,1-.035-.006l-.017-.006c-.049-.017-.1-.031-.15-.047l-.006,0Z"
                        transform="translate(0.011 0)" fill-rule="evenodd" />
</svg>