<svg xmlns="http://www.w3.org/2000/svg" id="glipe" height="24"
                      viewBox="0 0 64 64" width="24">
                      <g>
                        <path d="m16.77 40.38a5.585 5.585 0 1 0 -5.59-5.59 5.59934 5.59934 0 0 0 5.59 5.59z" />
                        <path
                          d="m29 53.39a2.06009 2.06009 0 0 0 .53-1.6 12.78205 12.78205 0 0 0 -6.98-10.16 1.57062 1.57062 0 0 0 -1.34-.03 10.98266 10.98266 0 0 1 -8.88 0 1.5716 1.5716 0 0 0 -1.34.03 12.797 12.797 0 0 0 -6.98 10.16 2.06023 2.06023 0 0 0 .53 1.6 2.12881 2.12881 0 0 0 1.57.7h21.32a2.12871 2.12871 0 0 0 1.57-.7z" />
                        <path d="m41.64 34.79a5.59 5.59 0 1 0 5.59-5.58 5.59934 5.59934 0 0 0 -5.59 5.58z" />
                        <path
                          d="m53.01 41.63a1.57076 1.57076 0 0 0 -1.34-.03 10.98266 10.98266 0 0 1 -8.88 0 1.57147 1.57147 0 0 0 -1.34.03 12.79707 12.79707 0 0 0 -6.98 10.16 2.06009 2.06009 0 0 0 .53 1.6 2.12871 2.12871 0 0 0 1.57.7h21.32a2.12881 2.12881 0 0 0 1.57-.7 2.0982 2.0982 0 0 0 .53-1.6 12.782 12.782 0 0 0 -6.98-10.16z" />
                        <path
                          d="m14.885 18.87213a1.04349 1.04349 0 0 0 .43.1 1.02006 1.02006 0 0 0 .62006-.22l4.12-3.26h10.02a3.00234 3.00234 0 0 0 3-3v-3.08a2.996 2.996 0 0 0 -3-3h-14.76006a3.00242 3.00242 0 0 0 -3 3v3.08a3.00055 3.00055 0 0 0 2 2.82v2.66a1.00362 1.00362 0 0 0 .57.9zm12.17-8.92a1 1 0 0 1 0 2 1 1 0 0 1 0-2zm-4.36 0a1 1 0 1 1 -1 1 .9965.9965 0 0 1 1-.99998zm-4.36 0a1 1 0 1 1 -1 1 .99654.99654 0 0 1 1-.99998z" />
                        <path
                          d="m39.48505 30.50214a1.00918 1.00918 0 0 0 .62.21.90708.90708 0 0 0 .43-.1.98191.98191 0 0 0 .57-.9v-2.65a3.00377 3.00377 0 0 0 2-2.83v-3.08a3.00883 3.00883 0 0 0 -3-3h-14.76005a3.00879 3.00879 0 0 0 -3 3v3.08a3.00234 3.00234 0 00 3 3h10.02zm-2.4-8.81a1 1 0 1 1 -1 1 1.003 1.003 0 0 1 .99995-1zm-8.72 2a1 1 0 1 1 1-1 .9965.9965 0 0 1 -1 1zm4.36 0a1 1 0 1 1 1-1 .99654.99654 0 0 1 -1.000051z" />
                      </g>
                    </svg>