<svg xmlns="http://www.w3.org/2000/svg"
                      xmlns:xlink="http://www.w3.org/1999/xlink" version="1.1" height="24" width="24" id="Capa_1"
                      x="0px" y="0px" viewBox="0 0 512 512" style="enable-background:new 0 0 512 512;"
                      xml:space="preserve">
                      <g>
                        <g>
                          <rect x="391" y="391" width="30" height="30" />
                        </g>
                      </g>
                      <g>
                        <g>
                          <rect x="241" y="391" width="30" height="30" />
                        </g>
                      </g>
                      <g>
                        <g>
                          <rect x="91" y="391" width="30" height="30" />
                        </g>
                      </g>
                      <g>
                        <g>
                          <polygon
                            points="451,30 451,0 421,0 421,30 361,30 361,0 331,0 331,30 271,30 271,0 241,0 241,30 181,30 181,0 151,0 151,30     91,30 91,0 61,0 61,30 0,30 0,151 512,151 512,30   " />
                        </g>
                      </g>
                      <g>
                        <g>
                          <rect x="391" y="241" width="30" height="30" />
                        </g>
                      </g>
                      <g>
                        <g>
                          <path
                            d="M0,181v331h512V181H0z M151,451H61v-90h90V451z M91,307.211l-40.605-40.605l21.211-21.211L91,264.789l49.395-49.395    l21.211,21.211L91,307.211z M301,451h-90v-90h90V451z M241,307.211l-40.605-40.605l21.211-21.211L241,264.789l49.395-49.395    l21.211,21.211L241,307.211z M451,451h-90v-90h90V451z M451,301h-90v-90h90V301z" />
                        </g>
</svg>
