<svg xmlns="http://www.w3.org/2000/svg" width="24" height="24" viewBox="0 0 24 24">
                            <g id="_001-optimization" data-name="001-optimization" transform="translate(0 0)">
                              <path id="Caminho_3319" data-name="Caminho 3319" d="M117.784,111a6.784,6.784,0,1,0,6.784,6.784A6.792,6.792,0,0,0,117.784,111Zm4.746,7.117h-1.4v-1.3l-3.343,3.343-1.5-1.5-2.5,2.5-.992-.992,3.491-3.491,1.5,1.5,2.35-2.35h-1.3v-1.4h3.7Z" transform="translate(-105.784 -105.784)" />
                              <path id="Caminho_3320" data-name="Caminho 3320" d="M24,13.5v-3H22.393a10.427,10.427,0,0,0-.641-2.4l1.39-.8-1.5-2.6-1.392.8A10.56,10.56,0,0,0,18.5,3.75l.8-1.392L16.7.858l-.8,1.39a10.427,10.427,0,0,0-2.4-.641V0h-3V1.607a10.427,10.427,0,0,0-2.4.641L7.3.858l-2.6,1.5L5.5,3.75A10.56,10.56,0,0,0,3.75,5.5L2.358,4.7.858,7.3l1.39.8a10.427,10.427,0,0,0-.641,2.4H0v3H1.607a10.427,10.427,0,0,0,.641,2.4l-1.39.8,1.5,2.6,1.392-.8A10.56,10.56,0,0,0,5.5,20.25l-.8,1.392,2.6,1.5.8-1.39a10.427,10.427,0,0,0,2.4.641V24h3V22.393a10.427,10.427,0,0,0,2.4-.641l.8,1.39,2.6-1.5-.8-1.392A10.56,10.56,0,0,0,20.25,18.5l1.392.8,1.5-2.6-1.39-.8a10.427,10.427,0,0,0,.641-2.4ZM12,20.2A8.2,8.2,0,1,1,20.2,12,8.212,8.212,0,0,1,12,20.2Z" transform="translate(0 0)" />
                            </g>
                          </svg> 