<svg xmlns="http://www.w3.org/2000/svg" width="24.044" height="19.917" viewBox="0 0 24.044 19.917">
                            <g id="Grupo_134" data-name="Grupo 134" transform="translate(-401 -881)">
                              <g id="_001-paid-media" data-name="001-paid-media" transform="translate(401 881)">
                                <g id="Grupo_134-2" data-name="Grupo 134" transform="translate(0 0)">
                                  <g id="XMLID_1_" transform="translate(0 0)">
                                    <path id="Caminho_3307" data-name="Caminho 3307" d="M283.679,240.293a4.593,4.593,0,1,1-8,3.082v-.009a4.592,4.592,0,0,1,8-3.073Zm-1.531,4.11a1.1,1.1,0,0,0-.267-.772,1.608,1.608,0,0,0-.639-.423,7.812,7.812,0,0,0-.958-.264,3.125,3.125,0,0,1-.892-.3.5.5,0,0,1-.229-.449.57.57,0,0,1,.3-.517,1.52,1.52,0,0,1,.782-.179,1.3,1.3,0,0,1,.816.225.825.825,0,0,1,.28.434.315.315,0,0,0,.333.224.312.312,0,0,0,.276-.39,1.261,1.261,0,0,0-.46-.7,1.835,1.835,0,0,0-.928-.351v-.407a.286.286,0,1,0-.573,0v.4a1.718,1.718,0,0,0-.988.364,1.181,1.181,0,0,0-.448.945,1.05,1.05,0,0,0,.355.819,2.586,2.586,0,0,0,1.154.487,4.99,4.99,0,0,1,1.135.348.588.588,0,0,1,.334.556.657.657,0,0,1-.32.579,1.5,1.5,0,0,1-.845.215,1.7,1.7,0,0,1-.952-.258.914.914,0,0,1-.4-.573.307.307,0,0,0-.3-.233l-.029,0a.313.313,0,0,0-.228.127.3.3,0,0,0-.051.244,1.54,1.54,0,0,0,.484.825,1.9,1.9,0,0,0,1.1.427v.408a.286.286,0,0,0,.573,0v-.392a1.857,1.857,0,0,0,1.1-.4A1.281,1.281,0,0,0,282.148,244.4Z" transform="translate(-260.824 -228.051)" />
                                    <path id="Caminho_3308" data-name="Caminho 3308" d="M10,290.29H24.576a5.083,5.083,0,0,0-.284,1.419H15.91v-.443a.286.286,0,0,0-.573,0v.443H11.525a.286.286,0,1,0,0,.573h3.812v.443a.286.286,0,1,0,.573,0v-.443h8.381a5.127,5.127,0,0,0,.279,1.419H10.858a.859.859,0,0,1-.858-.858Z" transform="translate(-10 -276.681)" />
                                    <path id="Caminho_3309" data-name="Caminho 3309" d="M32.773,47.768V58.281a5.161,5.161,0,0,0-7.955,1.666H10V47.768a.859.859,0,0,1,.858-.858H31.914a.859.859,0,0,1,.859.858ZM25.166,53.4a.286.286,0,0,0-.143-.248l-5.239-3.025a.286.286,0,0,0-.429.248v6.05a.286.286,0,0,0,.429.248l5.239-3.025A.289.289,0,0,0,25.166,53.4Z" transform="translate(-10 -46.91)" />
                                    <path id="Caminho_3310" data-name="Caminho 3310" d="M191.9,120.349l-4.38,2.529V117.82Z" transform="translate(-177.594 -113.855)" />
                                  </g>
                                </g>
                              </g>
                            </g>
                          </svg>