<svg xmlns="http://www.w3.org/2000/svg" width="23.499" height="23.982" viewBox="0 0 23.499 23.982">
  <g id="paleta-de-cores" transform="translate(-0.5)">
    <path id="Caminho_3263" data-name="Caminho 3263" d="M210.5,273.105v4.1l1.37-3.57Zm0,0" transform="translate(-200.164 -260.313)" fill="#f55622"/>
    <path id="Caminho_3264" data-name="Caminho 3264" d="M210.5,144.57v4.515l1.874.719,1.511-3.935Zm0,0" transform="translate(-200.164 -137.798)" fill="#f55622"/>
    <path id="Caminho_3265" data-name="Caminho 3265" d="M215.243,17.852,210.5,16.031v4.515l3.888,1.493,1.259-3.28a.7.7,0,0,0-.4-.908Zm0,0" transform="translate(-200.164 -15.28)" fill="#f55622"/>
    <path id="Caminho_3266" data-name="Caminho 3266" d="M224.516,329.87l2.558-2.841-1.09-.982Zm0,0" transform="translate(-213.523 -310.775)" fill="#f55622"/>
    <path id="Caminho_3267" data-name="Caminho 3267" d="M268.977,206.047l-1.618,4.216,1.491,1.343,2.821-3.133Zm0,0" transform="translate(-254.359 -196.396)" fill="#f55622"/>
    <path id="Caminho_3268" data-name="Caminho 3268" d="M318.815,89.446l-3.775-3.4-1.618,4.216,3.095,2.787,2.351-2.611A.7.7,0,0,0,318.815,89.446Zm0,0" transform="translate(-298.264 -82.016)" fill="#f55622"/>
    <path id="Caminho_3269" data-name="Caminho 3269" d="M220.789,394.7l3.407-1.736-.666-1.308Zm0,0" transform="translate(-209.971 -373.311)" fill="#f55622"/>
    <path id="Caminho_3270" data-name="Caminho 3270" d="M300.8,299.488l.911,1.788,3.756-1.914-1.646-3.23Zm0,0" transform="translate(-286.231 -282.262)" fill="#f55622"/>
    <path id="Caminho_3271" data-name="Caminho 3271" d="M392.133,205.14l-2.306-4.526-3.021,3.356,1.891,3.711,3.13-1.595A.7.7,0,0,0,392.133,205.14Zm0,0" transform="translate(-368.21 -191.217)" fill="#f55622"/>
    <path id="Caminho_3272" data-name="Caminho 3272" d="M8.229,0H1.2A.7.7,0,0,0,.5.7V19.766a4.216,4.216,0,1,0,8.431,0V.7A.7.7,0,0,0,8.229,0ZM5.6,20.459a1.172,1.172,0,1,1,.343-.828A1.18,1.18,0,0,1,5.6,20.459Zm0,0" fill="#f55622"/>
  </g>
</svg>
