<svg id="Componente_47_1" data-name="Componente 47 – 1" xmlns="http://www.w3.org/2000/svg" width="92" height="92" viewBox="0 0 300 300">
                              <rect id="Retângulo_370" data-name="Retângulo 370" width="300" height="300" fill="none"/>
                              <path id="pinterest" d="M108.447,13.686a100,100,0,1,0,99.753,100,100.055,100.055,0,0,0-99.753-100Zm7.9,126.961c-7.407-.491-10.37-4.411-16.3-7.843-2.963,16.665-6.914,32.351-18.272,40.684-3.457-25,4.938-43.626,8.889-63.725-6.914-11.274.988-34.8,15.309-28.922,17.778,6.864-15.309,43.137,6.914,47.548,23.7,4.9,33.086-40.684,18.766-55.391-21.235-21.079-61.235-.491-56.3,29.9,1.481,7.355,8.889,9.8,3.457,20.1C64.99,120.059,61.04,109.273,61.533,95.549c.988-23.04,20.741-39.217,40.987-41.667,25.185-2.941,48.889,9.313,51.852,32.842,3.951,26.963-11.358,55.885-38.025,53.923Z" transform="translate(41.8 36.314)" fill="#64c3c7" fill-rule="evenodd"/>
                            </svg> 