<svg xmlns="http://www.w3.org/2000/svg" width="24.023" height="24.023" viewBox="0 0 24.023 24.023">
  <g id="portfolio" transform="translate(-0.03)">
    <path id="Caminho_24" data-name="Caminho 24" d="M12.03,4h.858v.858H12.03Z" transform="translate(-6.852 -2.284)" fill="#caa9e8"/>
    <path id="Caminho_25" data-name="Caminho 25" d="M4.03,4h.858v.858H4.03Z" transform="translate(-2.284 -2.284)" fill="#caa9e8"/>
    <path id="Caminho_26" data-name="Caminho 26" d="M20.03,4h.858v.858H20.03Z" transform="translate(-11.42 -2.284)" fill="#caa9e8"/>
    <path id="Caminho_27" data-name="Caminho 27" d="M22.98,0H1.1A1.074,1.074,0,0,0,.03,1.072V4.29H24.053V1.072A1.074,1.074,0,0,0,22.98,0ZM3.462,3a.429.429,0,0,1-.429.429H1.317A.429.429,0,0,1,.888,3V1.287A.429.429,0,0,1,1.317.858H3.033a.429.429,0,0,1,.429.429ZM6.894,3a.429.429,0,0,1-.429.429H4.749A.429.429,0,0,1,4.32,3V1.287A.429.429,0,0,1,4.749.858H6.465a.429.429,0,0,1,.429.429Zm3.432,0a.429.429,0,0,1-.429.429H8.181A.429.429,0,0,1,7.752,3V1.287A.429.429,0,0,1,8.181.858H9.9a.429.429,0,0,1,.429.429Z" transform="translate(0)" fill="#caa9e8"/>
    <path id="Caminho_28" data-name="Caminho 28" d="M18.03,16H20.6v2.574H18.03Z" transform="translate(-10.278 -9.136)" fill="#caa9e8"/>
    <path id="Caminho_29" data-name="Caminho 29" d="M32.444,49.952h3.077l-1.538-1.538Z" transform="translate(-18.509 -27.645)" fill="#caa9e8"/>
    <path id="Caminho_30" data-name="Caminho 30" d="M33.443,42.7a.429.429,0,0,1,.607,0l1.3,1.3,2.365-2.579a.429.429,0,0,1,.307-.139.419.419,0,0,1,.313.126l2.271,2.271V40H32.03v4.112Z" transform="translate(-18.273 -22.841)" fill="#caa9e8"/>
    <path id="Caminho_31" data-name="Caminho 31" d="M4.03,40h9.438v1.287H4.03Z" transform="translate(-2.284 -22.841)" fill="#caa9e8"/>
    <path id="Caminho_32" data-name="Caminho 32" d="M18.03,28H20.6v2.574H18.03Z" transform="translate(-10.278 -15.989)" fill="#caa9e8"/>
    <path id="Caminho_33" data-name="Caminho 33" d="M4.03,16H6.6v2.574H4.03Z" transform="translate(-2.284 -9.136)" fill="#caa9e8"/>
    <path id="Caminho_34" data-name="Caminho 34" d="M4.03,49h9.438v1.287H4.03Z" transform="translate(-2.284 -27.98)" fill="#caa9e8"/>
    <path id="Caminho_35" data-name="Caminho 35" d="M4.03,28H6.6v2.574H4.03Z" transform="translate(-2.284 -15.989)" fill="#caa9e8"/>
    <path id="Caminho_36" data-name="Caminho 36" d="M32.03,16H34.6v2.574H32.03Z" transform="translate(-18.273 -9.136)" fill="#caa9e8"/>
    <path id="Caminho_37" data-name="Caminho 37" d="M.03,12V29.8A1.074,1.074,0,0,0,1.1,30.875H22.98A1.074,1.074,0,0,0,24.053,29.8V12ZM12.9,13.287a.429.429,0,0,1,.429-.429H16.76a.429.429,0,0,1,.429.429v3.432a.429.429,0,0,1-.429.429H13.328a.429.429,0,0,1-.429-.429Zm0,5.148a.429.429,0,0,1,.429-.429H16.76a.429.429,0,0,1,.429.429v3.432a.429.429,0,0,1-.429.429H13.328a.429.429,0,0,1-.429-.429ZM6.894,13.287a.429.429,0,0,1,.429-.429h3.432a.429.429,0,0,1,.429.429v3.432a.429.429,0,0,1-.429.429H7.323a.429.429,0,0,1-.429-.429Zm0,5.148a.429.429,0,0,1,.429-.429h3.432a.429.429,0,0,1,.429.429v3.432a.429.429,0,0,1-.429.429H7.323a.429.429,0,0,1-.429-.429ZM.888,13.287a.429.429,0,0,1,.429-.429H4.749a.429.429,0,0,1,.429.429v3.432a.429.429,0,0,1-.429.429H1.317a.429.429,0,0,1-.429-.429Zm0,5.148a.429.429,0,0,1,.429-.429H4.749a.429.429,0,0,1,.429.429v3.432a.429.429,0,0,1-.429.429H1.317a.429.429,0,0,1-.429-.429ZM12.041,29.588a.429.429,0,0,1-.429.429H1.317a.429.429,0,0,1-.429-.429V27.443a.429.429,0,0,1,.429-.429h10.3a.429.429,0,0,1,.429.429Zm0-3.861a.429.429,0,0,1-.429.429H1.317a.429.429,0,0,1-.429-.429V23.582a.429.429,0,0,1,.429-.429h10.3a.429.429,0,0,1,.429.429Zm11.153,3.861a.429.429,0,0,1-.429.429H13.328a.429.429,0,0,1-.429-.429V23.582a.429.429,0,0,1,.429-.429h9.438a.429.429,0,0,1,.429.429Zm0-7.722a.429.429,0,0,1-.429.429H19.334a.429.429,0,0,1-.429-.429V18.435a.429.429,0,0,1,.429-.429h3.432a.429.429,0,0,1,.429.429Zm0-5.148a.429.429,0,0,1-.429.429H19.334a.429.429,0,0,1-.429-.429V13.287a.429.429,0,0,1,.429-.429h3.432a.429.429,0,0,1,.429.429Z" transform="translate(0 -6.852)" fill="#caa9e8"/>
    <path id="Caminho_38" data-name="Caminho 38" d="M46.03,16H48.6v2.574H46.03Z" transform="translate(-26.267 -9.136)" fill="#caa9e8"/>
    <path id="Caminho_39" data-name="Caminho 39" d="M46.03,28H48.6v2.574H46.03Z" transform="translate(-26.267 -15.989)" fill="#caa9e8"/>
    <path id="Caminho_40" data-name="Caminho 40" d="M43.282,45.445l-2.088,2.276.536.536h4.112v-.251Z" transform="translate(-23.506 -25.95)" fill="#caa9e8"/>
    <path id="Caminho_41" data-name="Caminho 41" d="M32.03,28H34.6v2.574H32.03Z" transform="translate(-18.273 -15.989)" fill="#caa9e8"/>
  </g>
</svg>
