<svg xmlns="http://www.w3.org/2000/svg" width="24.021" height="24.021" viewBox="0 0 24.021 24.021">
  <g id="servidor" transform="translate(-0.326 -0.326)">
    <g id="Grupo_51" data-name="Grupo 51" transform="translate(0.326 0.326)">
      <g id="Grupo_50" data-name="Grupo 50">
        <path id="Caminho_42" data-name="Caminho 42" d="M21.837,0H2.184A2.186,2.186,0,0,0,0,2.184V5.459A2.186,2.186,0,0,0,2.184,7.643H21.837a2.186,2.186,0,0,0,2.184-2.184V2.184A2.186,2.186,0,0,0,21.837,0ZM4.367,4.913a.546.546,0,1,1-1.092,0V2.73a.546.546,0,1,1,1.092,0V4.913Zm2.184,0a.546.546,0,1,1-1.092,0V2.73a.546.546,0,1,1,1.092,0Zm2.184,0a.546.546,0,0,1-1.092,0V2.73a.546.546,0,1,1,1.092,0V4.913Zm7.643,0A1.092,1.092,0,1,1,17.47,3.821,1.093,1.093,0,0,1,16.378,4.913Zm3.276,0a1.092,1.092,0,1,1,1.092-1.092A1.093,1.093,0,0,1,19.653,4.913Z" transform="translate(0 0)" fill="#caa9e8"/>
        <path id="Caminho_43" data-name="Caminho 43" d="M21.837,160H2.184A2.186,2.186,0,0,0,0,162.184v3.276a2.186,2.186,0,0,0,2.184,2.184H21.837a2.186,2.186,0,0,0,2.184-2.184v-3.276A2.186,2.186,0,0,0,21.837,160Zm-17.47,4.913a.546.546,0,1,1-1.092,0V162.73a.546.546,0,1,1,1.092,0v2.184Zm2.184,0a.546.546,0,1,1-1.092,0V162.73a.546.546,0,1,1,1.092,0Zm2.184,0a.546.546,0,1,1-1.092,0V162.73a.546.546,0,1,1,1.092,0v2.184Zm7.643,0a1.092,1.092,0,1,1,1.092-1.092A1.093,1.093,0,0,1,16.378,164.913Zm3.276,0a1.092,1.092,0,1,1,1.092-1.092A1.093,1.093,0,0,1,19.653,164.913Z" transform="translate(0 -151.811)" fill="#caa9e8"/>
        <path id="Caminho_44" data-name="Caminho 44" d="M21.837,320H2.184A2.186,2.186,0,0,0,0,322.184v3.276a2.186,2.186,0,0,0,2.184,2.184H21.837a2.186,2.186,0,0,0,2.184-2.184v-3.276A2.186,2.186,0,0,0,21.837,320Zm-17.47,4.913a.546.546,0,1,1-1.092,0V322.73a.546.546,0,1,1,1.092,0v2.184Zm2.184,0a.546.546,0,0,1-1.092,0V322.73a.546.546,0,1,1,1.092,0Zm2.184,0a.546.546,0,0,1-1.092,0V322.73a.546.546,0,1,1,1.092,0v2.184Zm7.643,0a1.092,1.092,0,1,1,1.092-1.092A1.093,1.093,0,0,1,16.378,324.913Zm3.276,0a1.092,1.092,0,1,1,1.092-1.092A1.093,1.093,0,0,1,19.653,324.913Z" transform="translate(0 -303.622)" fill="#caa9e8"/>
      </g>
    </g>
  </g>
</svg>
