<svg xmlns="http://www.w3.org/2000/svg" width="24.026" height="23.129" viewBox="0 0 24.026 23.129">
  <g id="slogan_marca" transform="translate(-16 -32)">
    <path id="Caminho_3273" data-name="Caminho 3273" d="M227.471,376H225.72l-.292,2.043,2.043-.292Z" transform="translate(-198.641 -326.379)" fill="#f55622"/>
    <path id="Caminho_3274" data-name="Caminho 3274" d="M134.872,85.932H128v1.695h11.556l1.38-1.447V80H128v5.085h6.872a.424.424,0,0,1,0,.847Zm4.851,0h-3.234a.424.424,0,0,1,0-.847h3.234a.424.424,0,0,1,0,.847ZM130.83,83.39a.424.424,0,0,1,0-.847h8.894a.424.424,0,0,1,0,.847Z" transform="translate(-106.068 -45.458)" fill="#f55622"/>
    <path id="Caminho_3275" data-name="Caminho 3275" d="M135.562,249.621a.4.4,0,0,1-.229.12l-2.83.424a.378.378,0,0,1-.057,0,.4.4,0,0,1-.305-.146.438.438,0,0,1-.095-.337l.4-2.966a.43.43,0,0,1,.115-.24l3.757-3.938h-3.067a.424.424,0,0,1,0-.847h3.875L138.748,240H128v1.695h3.638a.424.424,0,0,1,0,.847H128v1.695h4.851a.424.424,0,0,1,0,.847H128v7.627h12.936v-8.723l-5.374,5.633Z" transform="translate(-106.068 -197.583)" fill="#f55622"/>
    <path id="Caminho_3276" data-name="Caminho 3276" d="M280,242.517v1.344l7.875-7.875-.672-.672Z" transform="translate(-250.64 -192.971)" fill="#f55622"/>
    <path id="Caminho_3277" data-name="Caminho 3277" d="M430.053,160.7a.424.424,0,0,0,0-.6l-1.344-1.344a.424.424,0,0,0-.6,0l-.8.8,1.943,1.943Z" transform="translate(-390.151 -120.116)" fill="#f55622"/>
    <path id="Caminho_3278" data-name="Caminho 3278" d="M66.542,75.917H64.847A1.722,1.722,0,0,1,64,75.7v2.663c.55-.08.847-.3.847-.382a.424.424,0,0,1,.847,0c0,.619-.7,1.1-1.695,1.213v2.464c.55-.08.847-.3.847-.382a.424.424,0,0,1,.847,0c0,.619-.7,1.1-1.695,1.213v2.464c.55-.08.847-.3.847-.382a.424.424,0,0,1,.847,0c0,.619-.7,1.1-1.695,1.213v2.464c.55-.08.847-.3.847-.382a.424.424,0,0,1,.847,0c0,.619-.7,1.1-1.695,1.213v2.464c.55-.08.847-.3.847-.382a.424.424,0,0,1,.847,0c0,.619-.7,1.1-1.695,1.213v2.464c.55-.08.847-.3.847-.382a.424.424,0,0,1,.847,0c0,.619-.7,1.1-1.695,1.213v.847h2.542Z" transform="translate(-45.458 -41.381)" fill="#f55622"/>
    <path id="Caminho_3279" data-name="Caminho 3279" d="M244.658,219.189l7.2-7.2-.672-.672-7.875,7.875Z" transform="translate(-215.74 -170.176)" fill="#f55622"/>
    <path id="Caminho_3280" data-name="Caminho 3280" d="M0,0H.95V2.748H0Z" transform="translate(35.888 40.666) rotate(-45)" fill="#f55622"/>
    <path id="Caminho_3281" data-name="Caminho 3281" d="M64.847,33.695h16.1V32h-16.1a.847.847,0,1,0,0,1.695Z" transform="translate(-45.458)" fill="#f55622"/>
    <path id="Caminho_3282" data-name="Caminho 3282" d="M16.847,97.688c0,.085.3.311.847.393v.855C16.7,98.825,16,98.325,16,97.688s.7-1.137,1.695-1.248v.855C17.144,97.376,16.847,97.6,16.847,97.688Z" transform="translate(0 -61.027)" fill="#f55622"/>
    <path id="Caminho_3283" data-name="Caminho 3283" d="M16.847,161.688c0,.085.3.311.847.393v.855c-.991-.111-1.695-.611-1.695-1.248s.7-1.137,1.695-1.248v.855C17.144,161.376,16.847,161.6,16.847,161.688Z" transform="translate(0 -121.829)" fill="#f55622"/>
    <path id="Caminho_3284" data-name="Caminho 3284" d="M16.847,225.688c0,.085.3.311.847.393v.855c-.991-.111-1.695-.611-1.695-1.248s.7-1.137,1.695-1.248v.855C17.144,225.376,16.847,225.6,16.847,225.688Z" transform="translate(0 -182.535)" fill="#f55622"/>
    <path id="Caminho_3285" data-name="Caminho 3285" d="M16.847,289.688c0,.085.3.311.847.393v.855c-.991-.111-1.695-.611-1.695-1.248s.7-1.137,1.695-1.248v.855C17.144,289.376,16.847,289.6,16.847,289.688Z" transform="translate(0 -243.241)" fill="#f55622"/>
    <path id="Caminho_3286" data-name="Caminho 3286" d="M16.847,353.688c0,.085.3.311.847.393v.855c-.991-.111-1.695-.611-1.695-1.248s.7-1.137,1.695-1.248v.855C17.144,353.376,16.847,353.6,16.847,353.688Z" transform="translate(0 -303.947)" fill="#f55622"/>
    <path id="Caminho_3287" data-name="Caminho 3287" d="M16.847,417.688c0,.085.3.311.847.393v.855c-.991-.111-1.695-.611-1.695-1.248s.7-1.137,1.695-1.248v.855C17.144,417.376,16.847,417.6,16.847,417.688Z" transform="translate(0 -364.678)" fill="#f55622"/>
  </g>
</svg>
