<svg xmlns="http://www.w3.org/2000/svg" width="21.59" height="24.087" viewBox="0 0 21.59 24.087">
  <g id="manutencao" transform="translate(-5.765 -2.5)">
    <path id="Caminho_18" data-name="Caminho 18" d="M32.228,52.341h1.359l-.679-.679Z" transform="translate(-16.345 -30.365)" fill=""/>
    <path id="Caminho_19" data-name="Caminho 19" d="M5.765,14.244V28.38a.849.849,0,0,0,.849.849h.61a3.946,3.946,0,0,1,.934-1.455,4.019,4.019,0,0,1,3.3-1.154l1.587-1.587-1.363-1.359a4.015,4.015,0,0,1-4.331-5.068A.964.964,0,0,1,8.958,18.2l1.575,1.575L11.3,19,9.726,17.432a.962.962,0,0,1,.409-1.606A4.018,4.018,0,0,1,15.2,20.158l1.359,1.363,1.583-1.583a4.068,4.068,0,0,1,1.154-3.3A3.994,3.994,0,0,1,22.9,15.529a1.093,1.093,0,0,1,.552,1.845l-1.405,1.409.764.768,1.405-1.4a1.07,1.07,0,0,1,.772-.32,1.09,1.09,0,0,1,1.073.865,4.01,4.01,0,0,1-4.4,4.756l-1.587,1.587,4.192,4.192H26.5a.853.853,0,0,0,.853-.849V14.244Z" transform="translate(0 -7.254)" fill=""/>
    <path id="Caminho_20" data-name="Caminho 20" d="M27.354,3.35a.85.85,0,0,0-.85-.85H6.616a.85.85,0,0,0-.85.85V6.219H27.354V3.35ZM8.343,4.745H7.6a.386.386,0,1,1,0-.772h.743a.386.386,0,0,1,0,.772Zm2.214,0H9.814a.386.386,0,0,1,0-.772h.743a.386.386,0,0,1,0,.772Zm2.214,0h-.743a.386.386,0,1,1,0-.772h.743a.386.386,0,1,1,0,.772Zm12.75,0H18.267a.386.386,0,0,1,0-.772H25.52a.386.386,0,1,1,0,.772Z" transform="translate(0 0)" fill=""/>
    <path id="Caminho_21" data-name="Caminho 21" d="M19.226,46.321,16.8,43.9,14.93,45.769a3.235,3.235,0,1,0,2.424,2.424Zm-3.9,3.721-1.532.409-1.123-1.119.413-1.532,1.532-.413,1.119,1.123Z" transform="translate(-3.212 -25.57)" fill=""/>
    <path id="Caminho_22" data-name="Caminho 22" d="M37.853,27.693l1.872-1.872a3.231,3.231,0,0,0,3.9-3.767.324.324,0,0,0-.544-.154L41.362,23.62a.319.319,0,0,1-.455,0l-1.4-1.405a.319.319,0,0,1,0-.455l1.725-1.725a.324.324,0,0,0-.154-.544A3.24,3.24,0,0,0,37.3,23.4l-1.872,1.872Z" transform="translate(-18.322 -10.458)" fill=""/>
    <path id="Caminho_23" data-name="Caminho 23" d="M17.938,23.983a3.234,3.234,0,0,0-4.021-3.845.188.188,0,0,0-.074.313l1.862,1.862a.364.364,0,0,1,0,.514l-1.343,1.346a.364.364,0,0,1-.514,0l-1.865-1.865a.188.188,0,0,0-.313.074,3.235,3.235,0,0,0,3.845,4.025L25.79,36.682a1.714,1.714,0,0,0,2.424-2.424Z" transform="translate(-3.573 -10.82)" fill=""/>
  </g>
</svg>
