<svg id="b" xmlns="http://www.w3.org/2000/svg" width="92" height="92" viewBox="0 0 300 300">
                              <g id="Grupo_271" data-name="Grupo 271">
                                <circle id="Elipse_189" data-name="Elipse 189" cx="106.066" cy="106.066" r="106.066" transform="translate(0 150) rotate(-45)" fill="#64c3c7"/>
                                <path id="Caminho_3432" data-name="Caminho 3432" d="M336.748,215.768c-6.519-.889-12.15-4.445-16.891-9.779a32.538,32.538,0,0,1-8.594-22.522H287.852v93.346A19.921,19.921,0,0,1,267.7,296.668a20.631,20.631,0,0,1-16.3-8.3,20.021,20.021,0,0,1,16.3-31.412,19.106,19.106,0,0,1,5.927.889V234.141a36.476,36.476,0,0,0-5.927-.593h-.889a43.2,43.2,0,0,0-30.819,72.6A44.085,44.085,0,0,0,267.7,319.782c24,0,43.562-19.262,43.562-42.969v-48.6a43.147,43.147,0,0,0,32.3,10.965V215.768a13.271,13.271,0,0,1-6.816,0Z" transform="translate(-130.838 -98.491)" fill="#fff" fill-rule="evenodd"/>
                              </g>
                            </svg>