<svg id="b" xmlns="http://www.w3.org/2000/svg" width="92" height="92" viewBox="0 0 92 92">
  <g id="Grupo_56" data-name="Grupo 56" transform="translate(0)">
    <circle id="Elipse_178" data-name="Elipse 178" cx="32.527" cy="32.527" r="32.527" transform="translate(0 46) rotate(-45)" fill="#008183"/>
    <path id="Caminho_3228" data-name="Caminho 3228" d="M258.879,193.373a8.487,8.487,0,0,1-5.18-3,9.978,9.978,0,0,1-2.635-6.907h-7.179v28.626a6.109,6.109,0,0,1-6.18,6.089,6.327,6.327,0,0,1-5-2.545,6.14,6.14,0,0,1,5-9.633,5.859,5.859,0,0,1,1.818.273v-7.27a11.187,11.187,0,0,0-1.818-.182h-.273a13.248,13.248,0,0,0-9.451,22.265,13.52,13.52,0,0,0,9.724,4.18,13.284,13.284,0,0,0,13.359-13.177v-14.9a13.232,13.232,0,0,0,9.906,3.362v-7.179a4.07,4.07,0,0,1-2.09,0Z" transform="translate(-195.733 -157.408)" fill="#fff" fill-rule="evenodd"/>
  </g>
</svg>
