<svg id="b" xmlns="http://www.w3.org/2000/svg" width="92" height="92" viewBox="0 0 300 300">
                              <g id="Grupo_272" data-name="Grupo 272">
                                <circle id="Elipse_190" data-name="Elipse 190" cx="106.066" cy="106.066" r="106.066" transform="translate(0 150) rotate(-45)" fill="#64c3c7"/>
                                <path id="Caminho_3433" data-name="Caminho 3433" d="M296.64,267.369c-5.226-27.523,27.872-43.9,47.382-24.039a69.743,69.743,0,0,0,16.375-7.316A30.135,30.135,0,0,1,348.2,251.343s10.452-1.393,14.981-4.181c0,0-4.529,9.407-12.891,12.891,4.529,63.06-63.408,101.383-118.455,70.028,0,0,27.175,1.394,38.672-11.845,0,0-16.723,1.394-25.085-18.813a16.806,16.806,0,0,0,12.542-.7s-19.51-3.136-21.252-26.478c0,0,6.271,4.877,13.239,3.135,0,0-21.6-12.891-9.407-36.233,0,0,22.994,29.265,56.092,28.22h0Z" transform="translate(-145.468 -136.221)" fill="#fff" fill-rule="evenodd"/>
                              </g>
                            </svg>