<svg id="Componente_39_1" data-name="Componente 39 – 1" xmlns="http://www.w3.org/2000/svg" width="92" height="92" viewBox="0 0 92 92">
  <circle id="Elipse_179" data-name="Elipse 179" cx="32.527" cy="32.527" r="32.527" transform="translate(0 46) rotate(-45)" fill="#008183"/>
  <path id="Caminho_3229" data-name="Caminho 3229" d="M251.711,244.621c-1.6-8.441,8.547-13.462,14.531-7.372a21.387,21.387,0,0,0,5.022-2.244,9.241,9.241,0,0,1-3.739,4.7,15.925,15.925,0,0,0,4.594-1.282,8.931,8.931,0,0,1-3.953,3.953c1.389,19.338-19.445,31.091-36.326,21.475,0,0,8.334.427,11.859-3.633,0,0-5.128.427-7.693-5.769a5.154,5.154,0,0,0,3.846-.214s-5.983-.962-6.517-8.12a5.265,5.265,0,0,0,4.06.962s-6.624-3.953-2.885-11.112c0,0,7.052,8.975,17.2,8.654h0Z" transform="translate(-205.351 -204.402)" fill="#fff" fill-rule="evenodd"/>
</svg>
