<svg xmlns="http://www.w3.org/2000/svg" width="19" height="11.326"
                                    viewBox="0 0 19 11.326">
                                    <g id="eye" transform="translate(0 -98.725)">
                                        <path id="Caminho_570" data-name="Caminho 570"
                                            d="M9.5,98.725c-3.63,0-6.922,1.986-9.351,5.212a.752.752,0,0,0,0,.9c2.429,3.23,5.721,5.216,9.351,5.216s6.922-1.986,9.351-5.212a.752.752,0,0,0,0-.9C16.422,100.711,13.13,98.725,9.5,98.725Zm.26,9.651a4,4,0,1,1,3.727-3.727A4,4,0,0,1,9.76,108.376Zm-.12-1.842a2.152,2.152,0,1,1,2.009-2.009A2.148,2.148,0,0,1,9.64,106.533Z"
                                             />
                                    </g>
                                </svg>