<svg xmlns="http://www.w3.org/2000/svg" width="24" height="24" viewBox="0 0 24 24">
  <g id="_x35_7" transform="translate(-1 -1)">
    <path id="Caminho_82" data-name="Caminho 82" d="M21.5,1H4.5A3.5,3.5,0,0,0,1,4.5V7.42H25V4.5A3.5,3.5,0,0,0,21.5,1ZM4.7,4.87a.98.98,0,0,1-1.41,0A1,1,0,0,1,4.7,3.46.983.983,0,0,1,4.7,4.87Zm4,0a.98.98,0,0,1-1.41,0A1,1,0,0,1,8.7,3.46.981.981,0,0,1,8.7,4.87Zm4,0a.98.98,0,0,1-1.41,0A1,1,0,1,1,12.7,3.46.983.983,0,0,1,12.7,4.87Z" fill="#caa9e8"/>
    <path id="Caminho_83" data-name="Caminho 83" d="M1,21.5A3.5,3.5,0,0,0,4.5,25h17A3.5,3.5,0,0,0,25,21.5V9.42H1Zm5.75-5.13a2.514,2.514,0,0,1,2.52-2.51h6.97a2.512,2.512,0,0,1,2.51,2.51v1.64a2.518,2.518,0,0,1-2.51,2.51H9.27a2.52,2.52,0,0,1-2.52-2.51Z" fill="#caa9e8"/>
  </g>
</svg>
