<svg xmlns="http://www.w3.org/2000/svg" width="23.956"
                      height="20.794" viewBox="0 0 23.956 20.794">
                      <g id="_001-ecommerce" data-name="001-ecommerce" transform="translate(0 -0.5)">
                        <path id="Caminho_3362" data-name="Caminho 3362"
                          d="M23.956,12V2.605A2.108,2.108,0,0,0,21.85.5H2.105A2.108,2.108,0,0,0,0,2.605V12ZM10.9,7.712H4.188a.7.7,0,0,1,0-1.4H10.9a.7.7,0,0,1,0,1.4Zm0-2.239H4.188a.7.7,0,0,1,0-1.4H10.9a.7.7,0,0,1,0,1.4Zm0,4.478H4.188a.7.7,0,0,1,0-1.4H10.9a.7.7,0,0,1,0,1.4Zm4.4.739a.7.7,0,1,1,.7-.7A.7.7,0,0,1,15.3,10.69Zm1.942,0a.7.7,0,1,1,.7-.7A.7.7,0,0,1,17.245,10.69Zm3.133-4.911L18.791,8.571a.7.7,0,0,1-.61.355H14.936a.7.7,0,0,1-.7-.7l0-2.792V4.753h-.365a.7.7,0,1,1,0-1.4h1.067a.7.7,0,0,1,.7.7v.679h4.127a.7.7,0,0,1,.61,1.049Zm0,0"
                          transform="translate(0)" />
                        <path id="Caminho_3363" data-name="Caminho 3363"
                          d="M0,276.219V278.1a2.108,2.108,0,0,0,2.105,2.105H9.017v2.5H7.078a.7.7,0,0,0,0,1.4h9.8a.7.7,0,0,0,0-1.4H14.938v-2.5H21.85a2.108,2.108,0,0,0,2.105-2.105v-1.884Zm11.675.655h.606a.7.7,0,0,1,0,1.4h-.606a.7.7,0,0,1,0-1.4Zm0,0"
                          transform="translate(0 -262.818)" />
                      </g>
                    </svg>