<svg id="b" xmlns="http://www.w3.org/2000/svg" width="92.5" height="92.5" viewBox="0 0 92.5 92.5">
  <g id="Grupo_60" data-name="Grupo 60" transform="translate(0)">
    <circle id="Elipse_181" data-name="Elipse 181" cx="32.704" cy="32.704" r="32.704" transform="translate(0 46.25) rotate(-45)" fill="#008183"/>
    <g id="Grupo_59" data-name="Grupo 59" transform="translate(26.175 31.944)">
      <path id="Caminho_3231" data-name="Caminho 3231" d="M214.043,246.529c3.916-.313,8.537-.47,12.061-.47h0c3.524,0,8.067.157,12.061.47,4.621.392,6.97,1.175,7.6,5.8a58.455,58.455,0,0,1,.47,7.988h0a57.657,57.657,0,0,1-.47,7.988c-.627,4.7-2.976,5.4-7.6,5.8-3.994.392-8.537.47-12.061.47h0c-3.524,0-8.145-.078-12.061-.47-4.621-.392-7.049-1.1-7.675-5.8a75.449,75.449,0,0,1-.392-7.988h0a76.587,76.587,0,0,1,.392-7.988c.627-4.621,3.054-5.4,7.675-5.8Z" transform="translate(-205.977 -246.059)" fill="#fff" fill-rule="evenodd"/>
      <path id="Caminho_3232" data-name="Caminho 3232" d="M316.361,302.6l10.495,6.03-10.495,6.109Z" transform="translate(-300.306 -294.375)" fill="#008183" fill-rule="evenodd"/>
    </g>
  </g>
</svg>
