<svg id="b" xmlns="http://www.w3.org/2000/svg" width="92" height="92" viewBox="0 0 300 300">
                              <g id="Grupo_274" data-name="Grupo 274">
                                <circle id="Elipse_191" data-name="Elipse 191" cx="106.066" cy="106.066" r="106.066" transform="translate(0 150) rotate(-45)" fill="#64c3c7"/>
                                <g id="Grupo_273" data-name="Grupo 273" transform="translate(84.89 103.601)">
                                  <path id="Caminho_3434" data-name="Caminho 3434" d="M232.139,247.583c12.7-1.016,27.686-1.524,39.116-1.524h0c11.43,0,26.162.508,39.116,1.524,14.986,1.27,22.606,3.81,24.638,18.8a189.584,189.584,0,0,1,1.524,25.908h0A186.993,186.993,0,0,1,335.01,318.2c-2.032,15.24-9.652,17.526-24.638,18.8-12.954,1.27-27.686,1.524-39.116,1.524h0c-11.43,0-26.416-.254-39.116-1.524-14.986-1.27-22.86-3.556-24.892-18.8a244.684,244.684,0,0,1-1.27-25.908h0a248.374,248.374,0,0,1,1.27-25.908c2.032-14.986,9.906-17.526,24.892-18.8Z" transform="translate(-205.977 -246.059)" fill="#fff" fill-rule="evenodd"/>
                                  <path id="Caminho_3435" data-name="Caminho 3435" d="M316.361,302.6,350.4,322.156l-34.037,19.812Z" transform="translate(-264.29 -275.928)" fill="#64c3c7" fill-rule="evenodd"/>
                                </g>
                              </g>
                            </svg> 